<svg id="visual" viewBox="0 0 540 960" width="540" height="960" xmlns="http://www.w3.org/2000/svg" xmlns:xlink="http://www.w3.org/1999/xlink" version="1.1"><rect x="0" y="0" width="540" height="960" fill="#0a9396"></rect><defs><linearGradient id="grad1_0" x1="0%" y1="0%" x2="100%" y2="100%"><stop offset="30%" stop-color="#94d2bd" stop-opacity="1"></stop><stop offset="70%" stop-color="#94d2bd" stop-opacity="1"></stop></linearGradient></defs><defs><linearGradient id="grad1_1" x1="0%" y1="0%" x2="100%" y2="100%"><stop offset="30%" stop-color="#94d2bd" stop-opacity="1"></stop><stop offset="70%" stop-color="#7fc5b4" stop-opacity="1"></stop></linearGradient></defs><defs><linearGradient id="grad1_2" x1="0%" y1="0%" x2="100%" y2="100%"><stop offset="30%" stop-color="#69b9ac" stop-opacity="1"></stop><stop offset="70%" stop-color="#7fc5b4" stop-opacity="1"></stop></linearGradient></defs><defs><linearGradient id="grad1_3" x1="0%" y1="0%" x2="100%" y2="100%"><stop offset="30%" stop-color="#69b9ac" stop-opacity="1"></stop><stop offset="70%" stop-color="#52aca4" stop-opacity="1"></stop></linearGradient></defs><defs><linearGradient id="grad1_4" x1="0%" y1="0%" x2="100%" y2="100%"><stop offset="30%" stop-color="#37a09d" stop-opacity="1"></stop><stop offset="70%" stop-color="#52aca4" stop-opacity="1"></stop></linearGradient></defs><defs><linearGradient id="grad1_5" x1="0%" y1="0%" x2="100%" y2="100%"><stop offset="30%" stop-color="#37a09d" stop-opacity="1"></stop><stop offset="70%" stop-color="#0a9396" stop-opacity="1"></stop></linearGradient></defs><defs><linearGradient id="grad2_0" x1="0%" y1="0%" x2="100%" y2="100%"><stop offset="30%" stop-color="#94d2bd" stop-opacity="1"></stop><stop offset="70%" stop-color="#94d2bd" stop-opacity="1"></stop></linearGradient></defs><defs><linearGradient id="grad2_1" x1="0%" y1="0%" x2="100%" y2="100%"><stop offset="30%" stop-color="#7fc5b4" stop-opacity="1"></stop><stop offset="70%" stop-color="#94d2bd" stop-opacity="1"></stop></linearGradient></defs><defs><linearGradient id="grad2_2" x1="0%" y1="0%" x2="100%" y2="100%"><stop offset="30%" stop-color="#7fc5b4" stop-opacity="1"></stop><stop offset="70%" stop-color="#69b9ac" stop-opacity="1"></stop></linearGradient></defs><defs><linearGradient id="grad2_3" x1="0%" y1="0%" x2="100%" y2="100%"><stop offset="30%" stop-color="#52aca4" stop-opacity="1"></stop><stop offset="70%" stop-color="#69b9ac" stop-opacity="1"></stop></linearGradient></defs><defs><linearGradient id="grad2_4" x1="0%" y1="0%" x2="100%" y2="100%"><stop offset="30%" stop-color="#52aca4" stop-opacity="1"></stop><stop offset="70%" stop-color="#37a09d" stop-opacity="1"></stop></linearGradient></defs><defs><linearGradient id="grad2_5" x1="0%" y1="0%" x2="100%" y2="100%"><stop offset="30%" stop-color="#0a9396" stop-opacity="1"></stop><stop offset="70%" stop-color="#37a09d" stop-opacity="1"></stop></linearGradient></defs><g transform="translate(540, 0)"><path d="M0 493C-20.3 499.6 -40.6 506.2 -62 510.3C-83.4 514.3 -105.9 515.9 -124.9 506.8C-144 497.8 -159.6 478.1 -176.2 464.7C-192.9 451.3 -210.6 444.2 -230 438.3C-249.4 432.4 -270.5 427.8 -289.1 418.9C-307.8 410 -323.9 396.9 -338.2 381.7C-352.4 366.6 -364.8 349.5 -373.5 330.9C-382.2 312.3 -387.3 292.1 -402.4 277.8C-417.5 263.4 -442.6 254.8 -456.9 239.8C-471.2 224.8 -474.6 203.2 -486.2 184.4C-497.8 165.5 -517.5 149.3 -524.3 129.2C-531.1 109.1 -524.9 85.1 -518.2 62.9C-511.5 40.7 -504.2 20.4 -497 0L0 0Z" fill="#269999"></path><path d="M0 410.8C-16.9 416.3 -33.8 421.8 -51.6 425.2C-69.5 428.6 -88.2 429.9 -104.1 422.4C-120 414.8 -133 398.4 -146.9 387.3C-160.8 376.1 -175.5 370.1 -191.7 365.3C-207.9 360.4 -225.4 356.5 -241 349.1C-256.5 341.7 -269.9 330.7 -281.8 318.1C-293.7 305.5 -304 291.3 -311.3 275.7C-318.5 260.2 -322.8 243.5 -335.4 231.5C-347.9 219.5 -368.9 212.4 -380.7 199.8C-392.6 187.3 -395.5 169.4 -405.2 153.7C-414.8 138 -431.3 124.4 -436.9 107.7C-442.6 90.9 -437.4 70.9 -431.8 52.4C-426.2 33.9 -420.2 17 -414.2 0L0 0Z" fill="#45a6a0"></path><path d="M0 328.7C-13.5 333.1 -27 337.5 -41.3 340.2C-55.6 342.9 -70.6 343.9 -83.3 337.9C-96 331.9 -106.4 318.7 -117.5 309.8C-128.6 300.9 -140.4 296.1 -153.4 292.2C-166.3 288.3 -180.3 285.2 -192.8 279.3C-205.2 273.3 -216 264.6 -225.5 254.5C-235 244.4 -243.2 233 -249 220.6C-254.8 208.2 -258.2 194.8 -268.3 185.2C-278.4 175.6 -295.1 169.9 -304.6 159.9C-314.1 149.8 -316.4 135.5 -324.1 122.9C-331.9 110.4 -345 99.6 -349.5 86.2C-354.1 72.7 -349.9 56.7 -345.5 41.9C-341 27.2 -336.2 13.6 -331.3 0L0 0Z" fill="#5eb2a8"></path><path d="M0 246.5C-10.1 249.8 -20.3 253.1 -31 255.1C-41.7 257.2 -52.9 257.9 -62.5 253.4C-72 248.9 -79.8 239.1 -88.1 232.4C-96.5 225.7 -105.3 222.1 -115 219.2C-124.7 216.2 -135.3 213.9 -144.6 209.4C-153.9 205 -162 198.4 -169.1 190.9C-176.2 183.3 -182.4 174.8 -186.8 165.4C-191.1 156.1 -193.7 146.1 -201.2 138.9C-208.8 131.7 -221.3 127.4 -228.4 119.9C-235.6 112.4 -237.3 101.6 -243.1 92.2C-248.9 82.8 -258.8 74.7 -262.2 64.6C-265.5 54.6 -262.5 42.6 -259.1 31.5C-255.7 20.4 -252.1 10.2 -248.5 0L0 0Z" fill="#74bfb0"></path><path d="M0 164.3C-6.8 166.5 -13.5 168.7 -20.7 170.1C-27.8 171.4 -35.3 172 -41.6 168.9C-48 165.9 -53.2 159.4 -58.7 154.9C-64.3 150.4 -70.2 148.1 -76.7 146.1C-83.1 144.1 -90.2 142.6 -96.4 139.6C-102.6 136.7 -108 132.3 -112.7 127.2C-117.5 122.2 -121.6 116.5 -124.5 110.3C-127.4 104.1 -129.1 97.4 -134.1 92.6C-139.2 87.8 -147.5 84.9 -152.3 79.9C-157.1 74.9 -158.2 67.7 -162.1 61.5C-165.9 55.2 -172.5 49.8 -174.8 43.1C-177 36.4 -175 28.4 -172.7 21C-170.5 13.6 -168.1 6.8 -165.7 0L0 0Z" fill="#8accb8"></path><path d="M0 82.2C-3.4 83.3 -6.8 84.4 -10.3 85C-13.9 85.7 -17.6 86 -20.8 84.5C-24 83 -26.6 79.7 -29.4 77.5C-32.2 75.2 -35.1 74 -38.3 73.1C-41.6 72.1 -45.1 71.3 -48.2 69.8C-51.3 68.3 -54 66.1 -56.4 63.6C-58.7 61.1 -60.8 58.3 -62.3 55.1C-63.7 52 -64.6 48.7 -67.1 46.3C-69.6 43.9 -73.8 42.5 -76.1 40C-78.5 37.5 -79.1 33.9 -81 30.7C-83 27.6 -86.3 24.9 -87.4 21.5C-88.5 18.2 -87.5 14.2 -86.4 10.5C-85.2 6.8 -84 3.4 -82.8 0L0 0Z" fill="#94d2bd"></path></g><g transform="translate(0, 960)"><path d="M0 -517C22.3 -527.3 44.5 -537.7 64.6 -532.1C84.7 -526.5 102.6 -505 121.6 -493.2C140.6 -481.5 160.7 -479.5 179.1 -472.2C197.4 -464.8 214 -452.2 233.3 -444.5C252.6 -436.8 274.6 -434.2 293.7 -425.5C312.8 -416.7 329 -401.8 338.9 -382.5C348.7 -363.1 352.2 -339.3 365.3 -323.6C378.3 -307.9 400.9 -300.3 412.3 -284.6C423.8 -268.9 424.2 -245.3 431.2 -226.3C438.3 -207.4 452 -193.1 470.3 -178.4C488.6 -163.6 511.4 -148.4 524.3 -129.2C537.2 -110.1 540.1 -87 534.1 -64.8C528 -42.7 513 -21.3 498 0L0 0Z" fill="#269999"></path><path d="M0 -430.8C18.6 -439.5 37.1 -448.1 53.8 -443.4C70.6 -438.8 85.5 -420.8 101.3 -411C117.2 -401.2 133.9 -399.6 149.2 -393.5C164.5 -387.4 178.3 -376.8 194.4 -370.4C210.5 -364 228.8 -361.9 244.7 -354.6C260.7 -347.3 274.2 -334.9 282.4 -318.7C290.6 -302.6 293.5 -282.8 304.4 -269.7C315.3 -256.6 334 -250.2 343.6 -237.2C353.1 -224.1 353.5 -204.4 359.3 -188.6C365.2 -172.8 376.7 -160.9 391.9 -148.6C407.2 -136.4 426.2 -123.6 436.9 -107.7C447.7 -91.7 450.1 -72.5 445.1 -54C440 -35.6 427.5 -17.8 415 0L0 0Z" fill="#45a6a0"></path><path d="M0 -344.7C14.8 -351.6 29.7 -358.5 43.1 -354.7C56.5 -351 68.4 -336.7 81 -328.8C93.7 -321 107.1 -319.7 119.4 -314.8C131.6 -309.9 142.7 -301.4 155.5 -296.3C168.4 -291.2 183.1 -289.5 195.8 -283.7C208.5 -277.8 219.3 -267.9 225.9 -255C232.5 -242.1 234.8 -226.2 243.5 -215.7C252.2 -205.3 267.2 -200.2 274.9 -189.7C282.5 -179.3 282.8 -163.5 287.5 -150.9C292.2 -138.2 301.4 -128.7 313.5 -118.9C325.7 -109.1 341 -98.9 349.5 -86.2C358.1 -73.4 360.1 -58 356.1 -43.2C352 -28.4 342 -14.2 332 0L0 0Z" fill="#5eb2a8"></path><path d="M0 -258.5C11.1 -263.7 22.3 -268.8 32.3 -266C42.3 -263.3 51.3 -252.5 60.8 -246.6C70.3 -240.7 80.4 -239.8 89.5 -236.1C98.7 -232.4 107 -226.1 116.6 -222.2C126.3 -218.4 137.3 -217.1 146.8 -212.7C156.4 -208.4 164.5 -200.9 169.4 -191.2C174.4 -181.6 176.1 -169.7 182.6 -161.8C189.2 -153.9 200.4 -150.1 206.2 -142.3C211.9 -134.5 212.1 -122.6 215.6 -113.2C219.1 -103.7 226 -96.6 235.2 -89.2C244.3 -81.8 255.7 -74.2 262.2 -64.6C268.6 -55 270.1 -43.5 267 -32.4C264 -21.3 256.5 -10.7 249 0L0 0Z" fill="#74bfb0"></path><path d="M0 -172.3C7.4 -175.8 14.8 -179.2 21.5 -177.4C28.2 -175.5 34.2 -168.3 40.5 -164.4C46.9 -160.5 53.6 -159.8 59.7 -157.4C65.8 -154.9 71.3 -150.7 77.8 -148.2C84.2 -145.6 91.5 -144.7 97.9 -141.8C104.3 -138.9 109.7 -133.9 113 -127.5C116.2 -121 117.4 -113.1 121.8 -107.9C126.1 -102.6 133.6 -100.1 137.4 -94.9C141.3 -89.6 141.4 -81.8 143.7 -75.4C146.1 -69.1 150.7 -64.4 156.8 -59.5C162.9 -54.5 170.5 -49.5 174.8 -43.1C179.1 -36.7 180 -29 178 -21.6C176 -14.2 171 -7.1 166 0L0 0Z" fill="#8accb8"></path><path d="M0 -86.2C3.7 -87.9 7.4 -89.6 10.8 -88.7C14.1 -87.8 17.1 -84.2 20.3 -82.2C23.4 -80.2 26.8 -79.9 29.8 -78.7C32.9 -77.5 35.7 -75.4 38.9 -74.1C42.1 -72.8 45.8 -72.4 48.9 -70.9C52.1 -69.5 54.8 -67 56.5 -63.7C58.1 -60.5 58.7 -56.6 60.9 -53.9C63.1 -51.3 66.8 -50 68.7 -47.4C70.6 -44.8 70.7 -40.9 71.9 -37.7C73 -34.6 75.3 -32.2 78.4 -29.7C81.4 -27.3 85.2 -24.7 87.4 -21.5C89.5 -18.3 90 -14.5 89 -10.8C88 -7.1 85.5 -3.6 83 0L0 0Z" fill="#94d2bd"></path></g></svg>