<svg id="visual" viewBox="0 0 540 960" width="540" height="960" xmlns="http://www.w3.org/2000/svg" xmlns:xlink="http://www.w3.org/1999/xlink" version="1.1"><rect x="0" y="0" width="540" height="960" fill="#0a9396"></rect><defs><linearGradient id="grad1_0" x1="0%" y1="100%" x2="100%" y2="0%"><stop offset="30%" stop-color="#94d2bd" stop-opacity="1"></stop><stop offset="70%" stop-color="#94d2bd" stop-opacity="1"></stop></linearGradient></defs><defs><linearGradient id="grad1_1" x1="0%" y1="100%" x2="100%" y2="0%"><stop offset="30%" stop-color="#94d2bd" stop-opacity="1"></stop><stop offset="70%" stop-color="#7fc5b4" stop-opacity="1"></stop></linearGradient></defs><defs><linearGradient id="grad1_2" x1="0%" y1="100%" x2="100%" y2="0%"><stop offset="30%" stop-color="#69b9ac" stop-opacity="1"></stop><stop offset="70%" stop-color="#7fc5b4" stop-opacity="1"></stop></linearGradient></defs><defs><linearGradient id="grad1_3" x1="0%" y1="100%" x2="100%" y2="0%"><stop offset="30%" stop-color="#69b9ac" stop-opacity="1"></stop><stop offset="70%" stop-color="#52aca4" stop-opacity="1"></stop></linearGradient></defs><defs><linearGradient id="grad1_4" x1="0%" y1="100%" x2="100%" y2="0%"><stop offset="30%" stop-color="#37a09d" stop-opacity="1"></stop><stop offset="70%" stop-color="#52aca4" stop-opacity="1"></stop></linearGradient></defs><defs><linearGradient id="grad1_5" x1="0%" y1="100%" x2="100%" y2="0%"><stop offset="30%" stop-color="#37a09d" stop-opacity="1"></stop><stop offset="70%" stop-color="#0a9396" stop-opacity="1"></stop></linearGradient></defs><defs><linearGradient id="grad2_0" x1="0%" y1="100%" x2="100%" y2="0%"><stop offset="30%" stop-color="#94d2bd" stop-opacity="1"></stop><stop offset="70%" stop-color="#94d2bd" stop-opacity="1"></stop></linearGradient></defs><defs><linearGradient id="grad2_1" x1="0%" y1="100%" x2="100%" y2="0%"><stop offset="30%" stop-color="#7fc5b4" stop-opacity="1"></stop><stop offset="70%" stop-color="#94d2bd" stop-opacity="1"></stop></linearGradient></defs><defs><linearGradient id="grad2_2" x1="0%" y1="100%" x2="100%" y2="0%"><stop offset="30%" stop-color="#7fc5b4" stop-opacity="1"></stop><stop offset="70%" stop-color="#69b9ac" stop-opacity="1"></stop></linearGradient></defs><defs><linearGradient id="grad2_3" x1="0%" y1="100%" x2="100%" y2="0%"><stop offset="30%" stop-color="#52aca4" stop-opacity="1"></stop><stop offset="70%" stop-color="#69b9ac" stop-opacity="1"></stop></linearGradient></defs><defs><linearGradient id="grad2_4" x1="0%" y1="100%" x2="100%" y2="0%"><stop offset="30%" stop-color="#52aca4" stop-opacity="1"></stop><stop offset="70%" stop-color="#37a09d" stop-opacity="1"></stop></linearGradient></defs><defs><linearGradient id="grad2_5" x1="0%" y1="100%" x2="100%" y2="0%"><stop offset="30%" stop-color="#0a9396" stop-opacity="1"></stop><stop offset="70%" stop-color="#37a09d" stop-opacity="1"></stop></linearGradient></defs><g transform="translate(540, 960)"><path d="M-520 0C-520.3 -21.3 -520.6 -42.7 -514.2 -62.4C-507.8 -82.2 -494.6 -100.4 -488.4 -120.4C-482.1 -140.4 -482.8 -162.3 -474.1 -179.8C-465.3 -197.3 -447.2 -210.4 -444.5 -233.3C-441.8 -256.1 -454.4 -288.7 -444.4 -306.8C-434.5 -324.8 -402 -328.4 -377.2 -334.2C-352.5 -340 -335.5 -347.9 -326.3 -368.3C-317 -388.6 -315.4 -421.3 -300.5 -435.4C-285.6 -449.4 -257.3 -444.8 -235.6 -448.9C-213.9 -453.1 -198.7 -466.1 -181.2 -477.8C-163.7 -489.5 -144 -500 -123.2 -500C-102.5 -500.1 -80.7 -489.8 -60 -494.4C-39.3 -499 -19.7 -518.5 0 -538L0 0Z" fill="#269999"></path><path d="M-433.3 0C-433.6 -17.8 -433.9 -35.6 -428.5 -52C-423.2 -68.5 -412.2 -83.6 -407 -100.3C-401.8 -117 -402.3 -135.2 -395 -149.8C-387.8 -164.4 -372.7 -175.4 -370.4 -194.4C-368.1 -213.4 -378.6 -240.6 -370.3 -255.6C-362.1 -270.7 -335 -273.7 -314.4 -278.5C-293.8 -283.3 -279.6 -289.9 -271.9 -306.9C-264.2 -323.8 -262.8 -351.1 -250.4 -362.8C-238 -374.5 -214.5 -370.6 -196.3 -374.1C-178.2 -377.6 -165.6 -388.4 -151 -398.2C-136.4 -407.9 -120 -416.6 -102.7 -416.7C-85.4 -416.8 -67.3 -408.1 -50 -412C-32.8 -415.8 -16.4 -432.1 0 -448.3L0 0Z" fill="#45a6a0"></path><path d="M-346.7 0C-346.9 -14.2 -347.1 -28.5 -342.8 -41.6C-338.5 -54.8 -329.8 -66.9 -325.6 -80.3C-321.4 -93.6 -321.8 -108.2 -316 -119.9C-310.2 -131.5 -298.2 -140.3 -296.3 -155.5C-294.5 -170.8 -302.9 -192.5 -296.3 -204.5C-289.6 -216.6 -268 -219 -251.5 -222.8C-235 -226.7 -223.7 -232 -217.5 -245.5C-211.3 -259.1 -210.3 -280.9 -200.3 -290.2C-190.4 -299.6 -171.6 -296.5 -157.1 -299.3C-142.6 -302.1 -132.5 -310.7 -120.8 -318.5C-109.2 -326.3 -96 -333.3 -82.2 -333.4C-68.3 -333.4 -53.8 -326.5 -40 -329.6C-26.2 -332.6 -13.1 -345.7 0 -358.7L0 0Z" fill="#5eb2a8"></path><path d="M-260 0C-260.2 -10.7 -260.3 -21.3 -257.1 -31.2C-253.9 -41.1 -247.3 -50.2 -244.2 -60.2C-241.1 -70.2 -241.4 -81.1 -237 -89.9C-232.7 -98.6 -223.6 -105.2 -222.2 -116.6C-220.9 -128.1 -227.2 -144.3 -222.2 -153.4C-217.2 -162.4 -201 -164.2 -188.6 -167.1C-176.3 -170 -167.8 -174 -163.1 -184.1C-158.5 -194.3 -157.7 -210.7 -150.3 -217.7C-142.8 -224.7 -128.7 -222.4 -117.8 -224.5C-106.9 -226.5 -99.3 -233 -90.6 -238.9C-81.9 -244.8 -72 -250 -61.6 -250C-51.2 -250.1 -40.4 -244.9 -30 -247.2C-19.7 -249.5 -9.8 -259.2 0 -269L0 0Z" fill="#74bfb0"></path><path d="M-173.3 0C-173.4 -7.1 -173.5 -14.2 -171.4 -20.8C-169.3 -27.4 -164.9 -33.5 -162.8 -40.1C-160.7 -46.8 -160.9 -54.1 -158 -59.9C-155.1 -65.8 -149.1 -70.1 -148.2 -77.8C-147.3 -85.4 -151.5 -96.2 -148.1 -102.3C-144.8 -108.3 -134 -109.5 -125.7 -111.4C-117.5 -113.3 -111.8 -116 -108.8 -122.8C-105.7 -129.5 -105.1 -140.4 -100.2 -145.1C-95.2 -149.8 -85.8 -148.3 -78.5 -149.6C-71.3 -151 -66.2 -155.4 -60.4 -159.3C-54.6 -163.2 -48 -166.7 -41.1 -166.7C-34.2 -166.7 -26.9 -163.3 -20 -164.8C-13.1 -166.3 -6.6 -172.8 0 -179.3L0 0Z" fill="#8accb8"></path><path d="M-86.7 0C-86.7 -3.6 -86.8 -7.1 -85.7 -10.4C-84.6 -13.7 -82.4 -16.7 -81.4 -20.1C-80.4 -23.4 -80.5 -27 -79 -30C-77.6 -32.9 -74.5 -35.1 -74.1 -38.9C-73.6 -42.7 -75.7 -48.1 -74.1 -51.1C-72.4 -54.1 -67 -54.7 -62.9 -55.7C-58.8 -56.7 -55.9 -58 -54.4 -61.4C-52.8 -64.8 -52.6 -70.2 -50.1 -72.6C-47.6 -74.9 -42.9 -74.1 -39.3 -74.8C-35.6 -75.5 -33.1 -77.7 -30.2 -79.6C-27.3 -81.6 -24 -83.3 -20.5 -83.3C-17.1 -83.4 -13.5 -81.6 -10 -82.4C-6.6 -83.2 -3.3 -86.4 0 -89.7L0 0Z" fill="#94d2bd"></path></g><g transform="translate(0, 0)"><path d="M496 0C498.5 20.5 500.9 41 496.4 60.3C491.8 79.5 480.3 97.5 477.7 117.7C475.1 138 481.6 160.5 483.4 183.3C485.2 206.2 482.5 229.4 473.7 248.6C464.9 267.9 450.1 283.2 440.3 303.9C430.5 324.6 425.6 350.7 402.7 356.8C379.8 362.8 338.9 348.8 323.6 365.3C308.3 381.7 318.7 428.6 304.5 441.1C290.3 453.6 251.6 431.7 229.1 436.5C206.7 441.4 200.5 473 186.2 490.9C171.9 508.8 149.4 513 128 519.5C106.6 525.9 86.3 534.4 65.1 536.1C43.9 537.7 22 532.3 0 527L0 0Z" fill="#269999"></path><path d="M413.3 0C415.4 17.1 417.4 34.2 413.6 50.2C409.8 66.3 400.2 81.3 398.1 98.1C396 115 401.3 133.7 402.8 152.8C404.4 171.8 402.1 191.1 394.8 207.2C387.5 223.2 375.1 236 366.9 253.3C358.7 270.5 354.7 292.3 335.6 297.3C316.5 302.3 282.4 290.7 269.7 304.4C256.9 318.1 265.6 357.2 253.7 367.6C241.9 378 209.6 359.7 190.9 363.8C172.2 367.8 167.1 394.1 155.1 409.1C143.2 424 124.5 427.5 106.7 432.9C88.9 438.2 71.9 445.4 54.2 446.7C36.6 448.1 18.3 443.6 0 439.2L0 0Z" fill="#45a6a0"></path><path d="M330.7 0C332.3 13.7 333.9 27.3 330.9 40.2C327.9 53 320.2 65 318.5 78.5C316.8 92 321 107 322.3 122.2C323.5 137.5 321.7 152.9 315.8 165.8C310 178.6 300.1 188.8 293.5 202.6C287 216.4 283.7 233.8 268.5 237.8C253.2 241.9 225.9 232.5 215.7 243.5C205.5 254.5 212.4 285.8 203 294.1C193.5 302.4 167.7 287.8 152.7 291C137.8 294.2 133.6 315.3 124.1 327.3C114.6 339.2 99.6 342 85.4 346.3C71.1 350.6 57.5 356.3 43.4 357.4C29.3 358.5 14.6 354.9 0 351.3L0 0Z" fill="#5eb2a8"></path><path d="M248 0C249.2 10.3 250.5 20.5 248.2 30.1C245.9 39.8 240.1 48.8 238.9 58.9C237.6 69 240.8 80.2 241.7 91.7C242.6 103.1 241.2 114.7 236.9 124.3C232.5 133.9 225.1 141.6 220.1 152C215.2 162.3 212.8 175.4 201.3 178.4C189.9 181.4 169.4 174.4 161.8 182.6C154.2 190.9 159.3 214.3 152.2 220.6C145.1 226.8 125.8 215.8 114.6 218.3C103.3 220.7 100.2 236.5 93.1 245.4C85.9 254.4 74.7 256.5 64 259.7C53.3 262.9 43.1 267.2 32.5 268C22 268.8 11 266.2 0 263.5L0 0Z" fill="#74bfb0"></path><path d="M165.3 0C166.2 6.8 167 13.7 165.5 20.1C163.9 26.5 160.1 32.5 159.2 39.2C158.4 46 160.5 53.5 161.1 61.1C161.7 68.7 160.8 76.5 157.9 82.9C155 89.3 150 94.4 146.8 101.3C143.5 108.2 141.9 116.9 134.2 118.9C126.6 120.9 113 116.3 107.9 121.8C102.8 127.2 106.2 142.9 101.5 147C96.8 151.2 83.9 143.9 76.4 145.5C68.9 147.1 66.8 157.7 62.1 163.6C57.3 169.6 49.8 171 42.7 173.2C35.5 175.3 28.8 178.1 21.7 178.7C14.6 179.2 7.3 177.4 0 175.7L0 0Z" fill="#8accb8"></path><path d="M82.7 0C83.1 3.4 83.5 6.8 82.7 10C82 13.3 80 16.3 79.6 19.6C79.2 23 80.3 26.7 80.6 30.6C80.9 34.4 80.4 38.2 79 41.4C77.5 44.6 75 47.2 73.4 50.7C71.7 54.1 70.9 58.5 67.1 59.5C63.3 60.5 56.5 58.1 53.9 60.9C51.4 63.6 53.1 71.4 50.7 73.5C48.4 75.6 41.9 71.9 38.2 72.8C34.4 73.6 33.4 78.8 31 81.8C28.6 84.8 24.9 85.5 21.3 86.6C17.8 87.6 14.4 89.1 10.8 89.3C7.3 89.6 3.7 88.7 0 87.8L0 0Z" fill="#94d2bd"></path></g></svg>