<svg id="visual" viewBox="0 0 2732 2732" width="2732" height="2732" xmlns="http://www.w3.org/2000/svg" xmlns:xlink="http://www.w3.org/1999/xlink" version="1.1"><rect x="0" y="0" width="2732" height="2732" fill="#0a9396"></rect><path d="M0 1874L45.5 1879.5C91 1885 182 1896 273 1953C364 2010 455 2113 546.2 2127.2C637.3 2141.3 728.7 2066.7 819.8 2057.7C911 2048.7 1002 2105.3 1093 2146C1184 2186.7 1275 2211.3 1366 2172.2C1457 2133 1548 2030 1639 2018C1730 2006 1821 2085 1912.2 2078.8C2003.3 2072.7 2094.7 1981.3 2185.8 1955.8C2277 1930.3 2368 1970.7 2459 1999.5C2550 2028.3 2641 2045.7 2686.5 2054.3L2732 2063L2732 2733L2686.5 2733C2641 2733 2550 2733 2459 2733C2368 2733 2277 2733 2185.8 2733C2094.7 2733 2003.3 2733 1912.2 2733C1821 2733 1730 2733 1639 2733C1548 2733 1457 2733 1366 2733C1275 2733 1184 2733 1093 2733C1002 2733 911 2733 819.8 2733C728.7 2733 637.3 2733 546.2 2733C455 2733 364 2733 273 2733C182 2733 91 2733 45.5 2733L0 2733Z" fill="#94d2bd" stroke-linecap="round" stroke-linejoin="miter"></path></svg>