<svg id="visual" viewBox="0 0 2732 2732" width="2732" height="2732" xmlns="http://www.w3.org/2000/svg" xmlns:xlink="http://www.w3.org/1999/xlink" version="1.1"><rect x="0" y="0" width="2732" height="2732" fill="#fe5f55"></rect><path d="M0 1436L390 1509L781 1727L1171 1613L1561 1714L1951 1573L2342 1769L2732 1548L2732 2733L2342 2733L1951 2733L1561 2733L1171 2733L781 2733L390 2733L0 2733Z" fill="#fca25a"></path><path d="M0 1724L390 1569L781 1669L1171 1565L1561 1576L1951 1830L2342 1566L2732 1703L2732 2733L2342 2733L1951 2733L1561 2733L1171 2733L781 2733L390 2733L0 2733Z" fill="#fa9343"></path><path d="M0 1751L390 1821L781 1913L1171 2058L1561 2066L1951 1820L2342 1731L2732 1940L2732 2733L2342 2733L1951 2733L1561 2733L1171 2733L781 2733L390 2733L0 2733Z" fill="#f8842b"></path><path d="M0 2143L390 2201L781 1984L1171 2050L1561 2064L1951 1990L2342 2233L2732 2239L2732 2733L2342 2733L1951 2733L1561 2733L1171 2733L781 2733L390 2733L0 2733Z" fill="#f5730a"></path><path d="M0 2216L390 2112L781 2249L1171 2305L1561 2250L1951 2353L2342 2106L2732 2371L2732 2733L2342 2733L1951 2733L1561 2733L1171 2733L781 2733L390 2733L0 2733Z" fill="#df690b"></path><path d="M0 2274L390 2460L781 2353L1171 2287L1561 2407L1951 2249L2342 2368L2732 2434L2732 2733L2342 2733L1951 2733L1561 2733L1171 2733L781 2733L390 2733L0 2733Z" fill="#c95f0c"></path><path d="M0 2564L390 2429L781 2612L1171 2510L1561 2525L1951 2441L2342 2615L2732 2449L2732 2733L2342 2733L1951 2733L1561 2733L1171 2733L781 2733L390 2733L0 2733Z" fill="#b3550c"></path></svg>