<svg id="visual" viewBox="0 0 2732 2732" width="2732" height="2732" xmlns="http://www.w3.org/2000/svg" xmlns:xlink="http://www.w3.org/1999/xlink" version="1.1"><path d="M0 274L19.8 265C39.7 256 79.3 238 119 238C158.7 238 198.3 256 237.8 260.5C277.3 265 316.7 256 356.2 260.7C395.7 265.3 435.3 283.7 475 283.7C514.7 283.7 554.3 265.3 594 260.7C633.7 256 673.3 265 712.8 255.8C752.3 246.7 791.7 219.3 831.2 219.3C870.7 219.3 910.3 246.7 950 260.3C989.7 274 1029.3 274 1069 274C1108.7 274 1148.3 274 1188 269.5C1227.7 265 1267.3 256 1306.8 251.5C1346.3 247 1385.7 247 1425.2 242.5C1464.7 238 1504.3 229 1544 224.5C1583.7 220 1623.3 220 1663 224.5C1702.7 229 1742.3 238 1782 247C1821.7 256 1861.3 265 1900.8 260.5C1940.3 256 1979.7 238 2019.2 224.3C2058.7 210.7 2098.3 201.3 2138 210.3C2177.7 219.3 2217.3 246.7 2257 260.3C2296.7 274 2336.3 274 2375.8 260.3C2415.3 246.7 2454.7 219.3 2494.2 210.3C2533.7 201.3 2573.3 210.7 2613 219.8C2652.7 229 2692.3 238 2712.2 242.5L2732 247L2732 0L2712.2 0C2692.3 0 2652.7 0 2613 0C2573.3 0 2533.7 0 2494.2 0C2454.7 0 2415.3 0 2375.8 0C2336.3 0 2296.7 0 2257 0C2217.3 0 2177.7 0 2138 0C2098.3 0 2058.7 0 2019.2 0C1979.7 0 1940.3 0 1900.8 0C1861.3 0 1821.7 0 1782 0C1742.3 0 1702.7 0 1663 0C1623.3 0 1583.7 0 1544 0C1504.3 0 1464.7 0 1425.2 0C1385.7 0 1346.3 0 1306.8 0C1267.3 0 1227.7 0 1188 0C1148.3 0 1108.7 0 1069 0C1029.3 0 989.7 0 950 0C910.3 0 870.7 0 831.2 0C791.7 0 752.3 0 712.8 0C673.3 0 633.7 0 594 0C554.3 0 514.7 0 475 0C435.3 0 395.7 0 356.2 0C316.7 0 277.3 0 237.8 0C198.3 0 158.7 0 119 0C79.3 0 39.7 0 19.8 0L0 0Z" fill="#9db4c0"></path><path d="M0 684L19.8 684C39.7 684 79.3 684 119 684C158.7 684 198.3 684 237.8 665.8C277.3 647.7 316.7 611.3 356.2 606.8C395.7 602.3 435.3 629.7 475 629.7C514.7 629.7 554.3 602.3 594 588.7C633.7 575 673.3 575 712.8 579.5C752.3 584 791.7 593 831.2 602C870.7 611 910.3 620 950 615.5C989.7 611 1029.3 593 1069 593C1108.7 593 1148.3 611 1188 615.5C1227.7 620 1267.3 611 1306.8 611C1346.3 611 1385.7 620 1425.2 610.8C1464.7 601.7 1504.3 574.3 1544 583.5C1583.7 592.7 1623.3 638.3 1663 656.7C1702.7 675 1742.3 666 1782 670.5C1821.7 675 1861.3 693 1900.8 697.5C1940.3 702 1979.7 693 2019.2 661.2C2058.7 629.3 2098.3 574.7 2138 579.2C2177.7 583.7 2217.3 647.3 2257 661C2296.7 674.7 2336.3 638.3 2375.8 620.2C2415.3 602 2454.7 602 2494.2 592.8C2533.7 583.7 2573.3 565.3 2613 565.3C2652.7 565.3 2692.3 583.7 2712.2 592.8L2732 602L2732 245L2712.2 240.5C2692.3 236 2652.7 227 2613 217.8C2573.3 208.7 2533.7 199.3 2494.2 208.3C2454.7 217.3 2415.3 244.7 2375.8 258.3C2336.3 272 2296.7 272 2257 258.3C2217.3 244.7 2177.7 217.3 2138 208.3C2098.3 199.3 2058.7 208.7 2019.2 222.3C1979.7 236 1940.3 254 1900.8 258.5C1861.3 263 1821.7 254 1782 245C1742.3 236 1702.7 227 1663 222.5C1623.3 218 1583.7 218 1544 222.5C1504.3 227 1464.7 236 1425.2 240.5C1385.7 245 1346.3 245 1306.8 249.5C1267.3 254 1227.7 263 1188 267.5C1148.3 272 1108.7 272 1069 272C1029.3 272 989.7 272 950 258.3C910.3 244.7 870.7 217.3 831.2 217.3C791.7 217.3 752.3 244.7 712.8 253.8C673.3 263 633.7 254 594 258.7C554.3 263.3 514.7 281.7 475 281.7C435.3 281.7 395.7 263.3 356.2 258.7C316.7 254 277.3 263 237.8 258.5C198.3 254 158.7 236 119 236C79.3 236 39.7 254 19.8 263L0 272Z" fill="#b4cdd5"></path><path d="M0 985L19.8 985C39.7 985 79.3 985 119 989.5C158.7 994 198.3 1003 237.8 984.7C277.3 966.3 316.7 920.7 356.2 907C395.7 893.3 435.3 911.7 475 902.7C514.7 893.7 554.3 857.3 594 852.8C633.7 848.3 673.3 875.7 712.8 884.7C752.3 893.7 791.7 884.3 831.2 893.3C870.7 902.3 910.3 929.7 950 934.3C989.7 939 1029.3 921 1069 907.3C1108.7 893.7 1148.3 884.3 1188 888.8C1227.7 893.3 1267.3 911.7 1306.8 925.3C1346.3 939 1385.7 948 1425.2 938.8C1464.7 929.7 1504.3 902.3 1544 902.3C1583.7 902.3 1623.3 929.7 1663 943.3C1702.7 957 1742.3 957 1782 975.2C1821.7 993.3 1861.3 1029.7 1900.8 1029.7C1940.3 1029.7 1979.7 993.3 2019.2 961.5C2058.7 929.7 2098.3 902.3 2138 907C2177.7 911.7 2217.3 948.3 2257 943.8C2296.7 939.3 2336.3 893.7 2375.8 875.3C2415.3 857 2454.7 866 2494.2 861.5C2533.7 857 2573.3 839 2613 848.2C2652.7 857.3 2692.3 893.7 2712.2 911.8L2732 930L2732 600L2712.2 590.8C2692.3 581.7 2652.7 563.3 2613 563.3C2573.3 563.3 2533.7 581.7 2494.2 590.8C2454.7 600 2415.3 600 2375.8 618.2C2336.3 636.3 2296.7 672.7 2257 659C2217.3 645.3 2177.7 581.7 2138 577.2C2098.3 572.7 2058.7 627.3 2019.2 659.2C1979.7 691 1940.3 700 1900.8 695.5C1861.3 691 1821.7 673 1782 668.5C1742.3 664 1702.7 673 1663 654.7C1623.3 636.3 1583.7 590.7 1544 581.5C1504.3 572.3 1464.7 599.7 1425.2 608.8C1385.7 618 1346.3 609 1306.8 609C1267.3 609 1227.7 618 1188 613.5C1148.3 609 1108.7 591 1069 591C1029.3 591 989.7 609 950 613.5C910.3 618 870.7 609 831.2 600C791.7 591 752.3 582 712.8 577.5C673.3 573 633.7 573 594 586.7C554.3 600.3 514.7 627.7 475 627.7C435.3 627.7 395.7 600.3 356.2 604.8C316.7 609.3 277.3 645.7 237.8 663.8C198.3 682 158.7 682 119 682C79.3 682 39.7 682 19.8 682L0 682Z" fill="#cce6eb"></path><path d="M0 1504L19.8 1517.7C39.7 1531.3 79.3 1558.7 119 1572.3C158.7 1586 198.3 1586 237.8 1567.7C277.3 1549.3 316.7 1512.7 356.2 1503.5C395.7 1494.3 435.3 1512.7 475 1521.8C514.7 1531 554.3 1531 594 1535.5C633.7 1540 673.3 1549 712.8 1558.2C752.3 1567.3 791.7 1576.7 831.2 1595C870.7 1613.3 910.3 1640.7 950 1654.3C989.7 1668 1029.3 1668 1069 1663.3C1108.7 1658.7 1148.3 1649.3 1188 1649.3C1227.7 1649.3 1267.3 1658.7 1306.8 1636C1346.3 1613.3 1385.7 1558.7 1425.2 1535.8C1464.7 1513 1504.3 1522 1544 1544.7C1583.7 1567.3 1623.3 1603.7 1663 1631C1702.7 1658.3 1742.3 1676.7 1782 1676.7C1821.7 1676.7 1861.3 1658.3 1900.8 1640.2C1940.3 1622 1979.7 1604 2019.2 1572.2C2058.7 1540.3 2098.3 1494.7 2138 1490C2177.7 1485.3 2217.3 1521.7 2257 1549C2296.7 1576.3 2336.3 1594.7 2375.8 1581C2415.3 1567.3 2454.7 1521.7 2494.2 1498.8C2533.7 1476 2573.3 1476 2613 1485.2C2652.7 1494.3 2692.3 1512.7 2712.2 1521.8L2732 1531L2732 928L2712.2 909.8C2692.3 891.7 2652.7 855.3 2613 846.2C2573.3 837 2533.7 855 2494.2 859.5C2454.7 864 2415.3 855 2375.8 873.3C2336.3 891.7 2296.7 937.3 2257 941.8C2217.3 946.3 2177.7 909.7 2138 905C2098.3 900.3 2058.7 927.7 2019.2 959.5C1979.7 991.3 1940.3 1027.7 1900.8 1027.7C1861.3 1027.7 1821.7 991.3 1782 973.2C1742.3 955 1702.7 955 1663 941.3C1623.3 927.7 1583.7 900.3 1544 900.3C1504.3 900.3 1464.7 927.7 1425.2 936.8C1385.7 946 1346.3 937 1306.8 923.3C1267.3 909.7 1227.7 891.3 1188 886.8C1148.3 882.3 1108.7 891.7 1069 905.3C1029.3 919 989.7 937 950 932.3C910.3 927.7 870.7 900.3 831.2 891.3C791.7 882.3 752.3 891.7 712.8 882.7C673.3 873.7 633.7 846.3 594 850.8C554.3 855.3 514.7 891.7 475 900.7C435.3 909.7 395.7 891.3 356.2 905C316.7 918.7 277.3 964.3 237.8 982.7C198.3 1001 158.7 992 119 987.5C79.3 983 39.7 983 19.8 983L0 983Z" fill="#e0fbfc"></path><path d="M0 1668L19.8 1681.5C39.7 1695 79.3 1722 119 1749.2C158.7 1776.3 198.3 1803.7 237.8 1785.5C277.3 1767.3 316.7 1703.7 356.2 1685.5C395.7 1667.3 435.3 1694.7 475 1708.3C514.7 1722 554.3 1722 594 1731.2C633.7 1740.3 673.3 1758.7 712.8 1772.3C752.3 1786 791.7 1795 831.2 1813.2C870.7 1831.3 910.3 1858.7 950 1863.2C989.7 1867.7 1029.3 1849.3 1069 1835.7C1108.7 1822 1148.3 1813 1188 1826.7C1227.7 1840.3 1267.3 1876.7 1306.8 1867.5C1346.3 1858.3 1385.7 1803.7 1425.2 1767.3C1464.7 1731 1504.3 1713 1544 1726.7C1583.7 1740.3 1623.3 1785.7 1663 1813C1702.7 1840.3 1742.3 1849.7 1782 1845.2C1821.7 1840.7 1861.3 1822.3 1900.8 1813.2C1940.3 1804 1979.7 1804 2019.2 1781.3C2058.7 1758.7 2098.3 1713.3 2138 1704.2C2177.7 1695 2217.3 1722 2257 1744.7C2296.7 1767.3 2336.3 1785.7 2375.8 1781.2C2415.3 1776.7 2454.7 1749.3 2494.2 1735.7C2533.7 1722 2573.3 1722 2613 1726.5C2652.7 1731 2692.3 1740 2712.2 1744.5L2732 1749L2732 1529L2712.2 1519.8C2692.3 1510.7 2652.7 1492.3 2613 1483.2C2573.3 1474 2533.7 1474 2494.2 1496.8C2454.7 1519.7 2415.3 1565.3 2375.8 1579C2336.3 1592.7 2296.7 1574.3 2257 1547C2217.3 1519.7 2177.7 1483.3 2138 1488C2098.3 1492.7 2058.7 1538.3 2019.2 1570.2C1979.7 1602 1940.3 1620 1900.8 1638.2C1861.3 1656.3 1821.7 1674.7 1782 1674.7C1742.3 1674.7 1702.7 1656.3 1663 1629C1623.3 1601.7 1583.7 1565.3 1544 1542.7C1504.3 1520 1464.7 1511 1425.2 1533.8C1385.7 1556.7 1346.3 1611.3 1306.8 1634C1267.3 1656.7 1227.7 1647.3 1188 1647.3C1148.3 1647.3 1108.7 1656.7 1069 1661.3C1029.3 1666 989.7 1666 950 1652.3C910.3 1638.7 870.7 1611.3 831.2 1593C791.7 1574.7 752.3 1565.3 712.8 1556.2C673.3 1547 633.7 1538 594 1533.5C554.3 1529 514.7 1529 475 1519.8C435.3 1510.7 395.7 1492.3 356.2 1501.5C316.7 1510.7 277.3 1547.3 237.8 1565.7C198.3 1584 158.7 1584 119 1570.3C79.3 1556.7 39.7 1529.3 19.8 1515.7L0 1502Z" fill="#e0fbfc"></path><path d="M0 2351L19.8 2351C39.7 2351 79.3 2351 119 2364.5C158.7 2378 198.3 2405 237.8 2405C277.3 2405 316.7 2378 356.2 2369C395.7 2360 435.3 2369 475 2373.5C514.7 2378 554.3 2378 594 2387C633.7 2396 673.3 2414 712.8 2404.8C752.3 2395.7 791.7 2359.3 831.2 2341.2C870.7 2323 910.3 2323 950 2327.7C989.7 2332.3 1029.3 2341.7 1069 2350.8C1108.7 2360 1148.3 2369 1188 2378C1227.7 2387 1267.3 2396 1306.8 2386.8C1346.3 2377.7 1385.7 2350.3 1425.2 2341.3C1464.7 2332.3 1504.3 2341.7 1544 2359.8C1583.7 2378 1623.3 2405 1663 2409.5C1702.7 2414 1742.3 2396 1782 2387C1821.7 2378 1861.3 2378 1900.8 2373.5C1940.3 2369 1979.7 2360 2019.2 2360C2058.7 2360 2098.3 2369 2138 2373.5C2177.7 2378 2217.3 2378 2257 2378C2296.7 2378 2336.3 2378 2375.8 2382.5C2415.3 2387 2454.7 2396 2494.2 2386.8C2533.7 2377.7 2573.3 2350.3 2613 2341.3C2652.7 2332.3 2692.3 2341.7 2712.2 2346.3L2732 2351L2732 1747L2712.2 1742.5C2692.3 1738 2652.7 1729 2613 1724.5C2573.3 1720 2533.7 1720 2494.2 1733.7C2454.7 1747.3 2415.3 1774.7 2375.8 1779.2C2336.3 1783.7 2296.7 1765.3 2257 1742.7C2217.3 1720 2177.7 1693 2138 1702.2C2098.3 1711.3 2058.7 1756.7 2019.2 1779.3C1979.7 1802 1940.3 1802 1900.8 1811.2C1861.3 1820.3 1821.7 1838.7 1782 1843.2C1742.3 1847.7 1702.7 1838.3 1663 1811C1623.3 1783.7 1583.7 1738.3 1544 1724.7C1504.3 1711 1464.7 1729 1425.2 1765.3C1385.7 1801.7 1346.3 1856.3 1306.8 1865.5C1267.3 1874.7 1227.7 1838.3 1188 1824.7C1148.3 1811 1108.7 1820 1069 1833.7C1029.3 1847.3 989.7 1865.7 950 1861.2C910.3 1856.7 870.7 1829.3 831.2 1811.2C791.7 1793 752.3 1784 712.8 1770.3C673.3 1756.7 633.7 1738.3 594 1729.2C554.3 1720 514.7 1720 475 1706.3C435.3 1692.7 395.7 1665.3 356.2 1683.5C316.7 1701.7 277.3 1765.3 237.8 1783.5C198.3 1801.7 158.7 1774.3 119 1747.2C79.3 1720 39.7 1693 19.8 1679.5L0 1666Z" fill="#cce6eb"></path><path d="M0 2514L19.8 2514C39.7 2514 79.3 2514 119 2523.2C158.7 2532.3 198.3 2550.7 237.8 2555.3C277.3 2560 316.7 2551 356.2 2551C395.7 2551 435.3 2560 475 2560C514.7 2560 554.3 2551 594 2551C633.7 2551 673.3 2560 712.8 2555.3C752.3 2550.7 791.7 2532.3 831.2 2523.2C870.7 2514 910.3 2514 950 2514C989.7 2514 1029.3 2514 1069 2514C1108.7 2514 1148.3 2514 1188 2523.2C1227.7 2532.3 1267.3 2550.7 1306.8 2550.7C1346.3 2550.7 1385.7 2532.3 1425.2 2523.2C1464.7 2514 1504.3 2514 1544 2523.2C1583.7 2532.3 1623.3 2550.7 1663 2555.3C1702.7 2560 1742.3 2551 1782 2546.5C1821.7 2542 1861.3 2542 1900.8 2537.3C1940.3 2532.7 1979.7 2523.3 2019.2 2518.7C2058.7 2514 2098.3 2514 2138 2523.2C2177.7 2532.3 2217.3 2550.7 2257 2559.8C2296.7 2569 2336.3 2569 2375.8 2569C2415.3 2569 2454.7 2569 2494.2 2559.8C2533.7 2550.7 2573.3 2532.3 2613 2527.8C2652.7 2523.3 2692.3 2532.7 2712.2 2537.3L2732 2542L2732 2349L2712.2 2344.3C2692.3 2339.7 2652.7 2330.3 2613 2339.3C2573.3 2348.3 2533.7 2375.7 2494.2 2384.8C2454.7 2394 2415.3 2385 2375.8 2380.5C2336.3 2376 2296.7 2376 2257 2376C2217.3 2376 2177.7 2376 2138 2371.5C2098.3 2367 2058.7 2358 2019.2 2358C1979.7 2358 1940.3 2367 1900.8 2371.5C1861.3 2376 1821.7 2376 1782 2385C1742.3 2394 1702.7 2412 1663 2407.5C1623.3 2403 1583.7 2376 1544 2357.8C1504.3 2339.7 1464.7 2330.3 1425.2 2339.3C1385.7 2348.3 1346.3 2375.7 1306.8 2384.8C1267.3 2394 1227.7 2385 1188 2376C1148.3 2367 1108.7 2358 1069 2348.8C1029.3 2339.7 989.7 2330.3 950 2325.7C910.3 2321 870.7 2321 831.2 2339.2C791.7 2357.3 752.3 2393.7 712.8 2402.8C673.3 2412 633.7 2394 594 2385C554.3 2376 514.7 2376 475 2371.5C435.3 2367 395.7 2358 356.2 2367C316.7 2376 277.3 2403 237.8 2403C198.3 2403 158.7 2376 119 2362.5C79.3 2349 39.7 2349 19.8 2349L0 2349Z" fill="#b4cdd5"></path><path d="M0 2733L19.8 2733C39.7 2733 79.3 2733 119 2733C158.7 2733 198.3 2733 237.8 2733C277.3 2733 316.7 2733 356.2 2733C395.7 2733 435.3 2733 475 2733C514.7 2733 554.3 2733 594 2733C633.7 2733 673.3 2733 712.8 2733C752.3 2733 791.7 2733 831.2 2733C870.7 2733 910.3 2733 950 2733C989.7 2733 1029.3 2733 1069 2733C1108.7 2733 1148.3 2733 1188 2733C1227.7 2733 1267.3 2733 1306.8 2733C1346.3 2733 1385.7 2733 1425.2 2733C1464.7 2733 1504.3 2733 1544 2733C1583.7 2733 1623.3 2733 1663 2733C1702.7 2733 1742.3 2733 1782 2733C1821.7 2733 1861.3 2733 1900.8 2733C1940.3 2733 1979.7 2733 2019.2 2733C2058.7 2733 2098.3 2733 2138 2733C2177.7 2733 2217.3 2733 2257 2733C2296.7 2733 2336.3 2733 2375.8 2733C2415.3 2733 2454.7 2733 2494.2 2733C2533.7 2733 2573.3 2733 2613 2733C2652.7 2733 2692.3 2733 2712.2 2733L2732 2733L2732 2540L2712.2 2535.3C2692.3 2530.7 2652.7 2521.3 2613 2525.8C2573.3 2530.3 2533.7 2548.7 2494.2 2557.8C2454.7 2567 2415.3 2567 2375.8 2567C2336.3 2567 2296.7 2567 2257 2557.8C2217.3 2548.7 2177.7 2530.3 2138 2521.2C2098.3 2512 2058.7 2512 2019.2 2516.7C1979.7 2521.3 1940.3 2530.7 1900.8 2535.3C1861.3 2540 1821.7 2540 1782 2544.5C1742.3 2549 1702.7 2558 1663 2553.3C1623.3 2548.7 1583.7 2530.3 1544 2521.2C1504.3 2512 1464.7 2512 1425.2 2521.2C1385.7 2530.3 1346.3 2548.7 1306.8 2548.7C1267.3 2548.7 1227.7 2530.3 1188 2521.2C1148.3 2512 1108.7 2512 1069 2512C1029.3 2512 989.7 2512 950 2512C910.3 2512 870.7 2512 831.2 2521.2C791.7 2530.3 752.3 2548.7 712.8 2553.3C673.3 2558 633.7 2549 594 2549C554.3 2549 514.7 2558 475 2558C435.3 2558 395.7 2549 356.2 2549C316.7 2549 277.3 2558 237.8 2553.3C198.3 2548.7 158.7 2530.3 119 2521.2C79.3 2512 39.7 2512 19.8 2512L0 2512Z" fill="#9db4c0"></path></svg>