<svg id="visual" viewBox="0 0 2732 2732" width="2732" height="2732" xmlns="http://www.w3.org/2000/svg" xmlns:xlink="http://www.w3.org/1999/xlink" version="1.1"><g stroke-width="1" stroke-linejoin="bevel"><path d="M1408 1425.6L1491.6 1388L1469.6 1319.4Z" fill="#b3cca9" stroke="#b3cca9"></path><path d="M1408 1425.6L1530.6 1437.6L1491.6 1388Z" fill="#d6e4ce" stroke="#d6e4ce"></path><path d="M1491.6 1388L1552.2 1299L1469.6 1319.4Z" fill="#b3cca9" stroke="#b3cca9"></path><path d="M1530.6 1437.6L1552.2 1299L1491.6 1388Z" fill="#d6e4ce" stroke="#d6e4ce"></path><path d="M1294 1227.4L1327 1272L1456.6 1151.8Z" fill="#c6dabd" stroke="#c6dabd"></path><path d="M1469.6 1319.4L1327 1272L1408 1425.6Z" fill="#c2d8b9" stroke="#c2d8b9"></path><path d="M1456 1618.2L1588.2 1466.6L1530.6 1437.6Z" fill="#bbd2b1" stroke="#bbd2b1"></path><path d="M1530.6 1437.6L1622.2 1319.4L1552.2 1299Z" fill="#9eba92" stroke="#9eba92"></path><path d="M1588.2 1466.6L1622.2 1319.4L1530.6 1437.6Z" fill="#cedfc5" stroke="#cedfc5"></path><path d="M1456.6 1151.8L1327 1272L1469.6 1319.4Z" fill="#caddc1" stroke="#caddc1"></path><path d="M1327 1272L1238.4 1456L1408 1425.6Z" fill="#acc6a1" stroke="#acc6a1"></path><path d="M1137.8 1251.4L1238.4 1456L1327 1272Z" fill="#a5c09a" stroke="#a5c09a"></path><path d="M1408 1425.6L1456 1618.2L1530.6 1437.6Z" fill="#9eba92" stroke="#9eba92"></path><path d="M1703.2 1157.8L1456.6 1151.8L1552.2 1299Z" fill="#c2d8b9" stroke="#c2d8b9"></path><path d="M1552.2 1299L1456.6 1151.8L1469.6 1319.4Z" fill="#9eba92" stroke="#9eba92"></path><path d="M1238.4 1456L1456 1618.2L1408 1425.6Z" fill="#a5c09a" stroke="#a5c09a"></path><path d="M1456.6 1151.8L1283.4 1151.8L1294 1227.4Z" fill="#c6dabd" stroke="#c6dabd"></path><path d="M1294 1227.4L1137.8 1251.4L1327 1272Z" fill="#caddc1" stroke="#caddc1"></path><path d="M1283.4 1151.8L1223.4 1175.4L1294 1227.4Z" fill="#bbd2b1" stroke="#bbd2b1"></path><path d="M1710.2 1681.2L1733.8 1449.6L1588.2 1466.6Z" fill="#acc6a1" stroke="#acc6a1"></path><path d="M1588.2 1466.6L1733.8 1449.6L1622.2 1319.4Z" fill="#d6e4ce" stroke="#d6e4ce"></path><path d="M1223.4 1175.4L1137.8 1251.4L1294 1227.4Z" fill="#c6dabd" stroke="#c6dabd"></path><path d="M1733.8 1449.6L1773.8 1391L1622.2 1319.4Z" fill="#9eba92" stroke="#9eba92"></path><path d="M1622.2 1319.4L1703.2 1157.8L1552.2 1299Z" fill="#c6dabd" stroke="#c6dabd"></path><path d="M1711.8 1162.4L1703.2 1157.8L1622.2 1319.4Z" fill="#a5c09a" stroke="#a5c09a"></path><path d="M1039.2 1449L1140.4 1549.6L1238.4 1456Z" fill="#9eba92" stroke="#9eba92"></path><path d="M1238.4 1456L1262.4 1705.2L1456 1618.2Z" fill="#9eba92" stroke="#9eba92"></path><path d="M1773.8 1391L1711.8 1162.4L1622.2 1319.4Z" fill="#d2e2ca" stroke="#d2e2ca"></path><path d="M1703.2 1157.8L1467.6 1022.2L1456.6 1151.8Z" fill="#b3cca9" stroke="#b3cca9"></path><path d="M1456.6 1151.8L1289 1025.8L1283.4 1151.8Z" fill="#caddc1" stroke="#caddc1"></path><path d="M1283.4 1151.8L1220.4 1050.2L1223.4 1175.4Z" fill="#d2e2ca" stroke="#d2e2ca"></path><path d="M1598.2 919.2L1467.6 1022.2L1703.2 1157.8Z" fill="#cedfc5" stroke="#cedfc5"></path><path d="M1262.4 1705.2L1452 1723.8L1456 1618.2Z" fill="#caddc1" stroke="#caddc1"></path><path d="M1456 1618.2L1710.2 1681.2L1588.2 1466.6Z" fill="#caddc1" stroke="#caddc1"></path><path d="M1452 1723.8L1500.6 1730.2L1456 1618.2Z" fill="#c2d8b9" stroke="#c2d8b9"></path><path d="M1467.6 1022.2L1289 1025.8L1456.6 1151.8Z" fill="#c2d8b9" stroke="#c2d8b9"></path><path d="M1223.4 1175.4L1119.8 1092.8L1137.8 1251.4Z" fill="#c6dabd" stroke="#c6dabd"></path><path d="M1039.2 1449L1111.8 1562.6L1140.4 1549.6Z" fill="#a5c09a" stroke="#a5c09a"></path><path d="M1140.4 1549.6L1262.4 1705.2L1238.4 1456Z" fill="#d6e4ce" stroke="#d6e4ce"></path><path d="M1168.4 1727.8L1262.4 1705.2L1140.4 1549.6Z" fill="#c6dabd" stroke="#c6dabd"></path><path d="M1452 1723.8L1587.6 1852.8L1500.6 1730.2Z" fill="#d6e4ce" stroke="#d6e4ce"></path><path d="M1289 1025.8L1220.4 1050.2L1283.4 1151.8Z" fill="#b3cca9" stroke="#b3cca9"></path><path d="M1023.8 1394L1238.4 1456L1137.8 1251.4Z" fill="#c2d8b9" stroke="#c2d8b9"></path><path d="M1023.8 1394L1039.2 1449L1238.4 1456Z" fill="#acc6a1" stroke="#acc6a1"></path><path d="M889.6 1155.8L1023.8 1394L1137.8 1251.4Z" fill="#acc6a1" stroke="#acc6a1"></path><path d="M1773.8 1391L1789.8 1160.8L1711.8 1162.4Z" fill="#bbd2b1" stroke="#bbd2b1"></path><path d="M1711.8 1162.4L1765.8 1026.2L1703.2 1157.8Z" fill="#c2d8b9" stroke="#c2d8b9"></path><path d="M1220.4 1050.2L1119.8 1092.8L1223.4 1175.4Z" fill="#c6dabd" stroke="#c6dabd"></path><path d="M1500.6 1730.2L1710.2 1681.2L1456 1618.2Z" fill="#c6dabd" stroke="#c6dabd"></path><path d="M1733.8 1449.6L1919.4 1550.6L1773.8 1391Z" fill="#caddc1" stroke="#caddc1"></path><path d="M1500.6 1730.2L1703.8 1696.2L1710.2 1681.2Z" fill="#c2d8b9" stroke="#c2d8b9"></path><path d="M1039.2 1449L1061.8 1594.2L1111.8 1562.6Z" fill="#cedfc5" stroke="#cedfc5"></path><path d="M1111.8 1562.6L1168.4 1727.8L1140.4 1549.6Z" fill="#c2d8b9" stroke="#c2d8b9"></path><path d="M953.2 1428.6L1061.8 1594.2L1039.2 1449Z" fill="#9eba92" stroke="#9eba92"></path><path d="M1061.8 1594.2L1168.4 1727.8L1111.8 1562.6Z" fill="#acc6a1" stroke="#acc6a1"></path><path d="M1544.6 1951L1587.6 1852.8L1452 1723.8Z" fill="#bbd2b1" stroke="#bbd2b1"></path><path d="M1500.6 1730.2L1682.2 1739.8L1703.8 1696.2Z" fill="#caddc1" stroke="#caddc1"></path><path d="M1587.6 1852.8L1682.2 1739.8L1500.6 1730.2Z" fill="#caddc1" stroke="#caddc1"></path><path d="M1789.8 1160.8L1765.8 1026.2L1711.8 1162.4Z" fill="#c2d8b9" stroke="#c2d8b9"></path><path d="M1765.8 1026.2L1598.2 919.2L1703.2 1157.8Z" fill="#b3cca9" stroke="#b3cca9"></path><path d="M1467.6 1022.2L1373 881.6L1289 1025.8Z" fill="#c2d8b9" stroke="#c2d8b9"></path><path d="M889.6 1155.8L953.2 1428.6L1023.8 1394Z" fill="#9eba92" stroke="#9eba92"></path><path d="M1023.8 1394L953.2 1428.6L1039.2 1449Z" fill="#caddc1" stroke="#caddc1"></path><path d="M1598.2 919.2L1373 881.6L1467.6 1022.2Z" fill="#cedfc5" stroke="#cedfc5"></path><path d="M1289 1025.8L1188.4 883.6L1220.4 1050.2Z" fill="#bbd2b1" stroke="#bbd2b1"></path><path d="M1220.4 1050.2L1109.8 895.2L1119.8 1092.8Z" fill="#a5c09a" stroke="#a5c09a"></path><path d="M1940.4 1784.8L1861.4 1618.2L1703.8 1696.2Z" fill="#a5c09a" stroke="#a5c09a"></path><path d="M1703.8 1696.2L1861.4 1618.2L1710.2 1681.2Z" fill="#c2d8b9" stroke="#c2d8b9"></path><path d="M1710.2 1681.2L1861.4 1618.2L1733.8 1449.6Z" fill="#a5c09a" stroke="#a5c09a"></path><path d="M1773.8 1391L1956.4 1190.4L1789.8 1160.8Z" fill="#cedfc5" stroke="#cedfc5"></path><path d="M1373 881.6L1349 879.2L1289 1025.8Z" fill="#acc6a1" stroke="#acc6a1"></path><path d="M1284 1870.4L1452 1723.8L1262.4 1705.2Z" fill="#a5c09a" stroke="#a5c09a"></path><path d="M1940.4 1784.8L1998 1676.2L1861.4 1618.2Z" fill="#b3cca9" stroke="#b3cca9"></path><path d="M1801.8 898.6L1600.6 879.6L1598.2 919.2Z" fill="#caddc1" stroke="#caddc1"></path><path d="M1598.2 919.2L1600.6 879.6L1373 881.6Z" fill="#c6dabd" stroke="#c6dabd"></path><path d="M1287.4 653L1188.4 883.6L1349 879.2Z" fill="#a5c09a" stroke="#a5c09a"></path><path d="M1861.4 1618.2L1919.4 1550.6L1733.8 1449.6Z" fill="#acc6a1" stroke="#acc6a1"></path><path d="M1789.8 1160.8L1820.4 1004.2L1765.8 1026.2Z" fill="#bbd2b1" stroke="#bbd2b1"></path><path d="M1168.4 1727.8L1284 1870.4L1262.4 1705.2Z" fill="#caddc1" stroke="#caddc1"></path><path d="M1919.4 1550.6L1951 1479.6L1773.8 1391Z" fill="#caddc1" stroke="#caddc1"></path><path d="M1942.4 1023.8L1820.4 1004.2L1789.8 1160.8Z" fill="#9eba92" stroke="#9eba92"></path><path d="M1765.8 1026.2L1801.8 898.6L1598.2 919.2Z" fill="#a5c09a" stroke="#a5c09a"></path><path d="M1951 1479.6L1966.4 1359L1773.8 1391Z" fill="#d2e2ca" stroke="#d2e2ca"></path><path d="M1349 879.2L1188.4 883.6L1289 1025.8Z" fill="#d2e2ca" stroke="#d2e2ca"></path><path d="M800.6 1214.4L867.6 1469.6L953.2 1428.6Z" fill="#c2d8b9" stroke="#c2d8b9"></path><path d="M1544.6 1951L1620.2 1880.4L1587.6 1852.8Z" fill="#d2e2ca" stroke="#d2e2ca"></path><path d="M1587.6 1852.8L1620.2 1880.4L1682.2 1739.8Z" fill="#a5c09a" stroke="#a5c09a"></path><path d="M1966.4 1359L1956.4 1190.4L1773.8 1391Z" fill="#bbd2b1" stroke="#bbd2b1"></path><path d="M1188.4 883.6L1109.8 895.2L1220.4 1050.2Z" fill="#c6dabd" stroke="#c6dabd"></path><path d="M889.6 1155.8L1137.8 1251.4L1119.8 1092.8Z" fill="#caddc1" stroke="#caddc1"></path><path d="M953.2 1428.6L867.6 1469.6L1061.8 1594.2Z" fill="#a5c09a" stroke="#a5c09a"></path><path d="M1029.2 1823.4L1127.8 1884.4L1168.4 1727.8Z" fill="#caddc1" stroke="#caddc1"></path><path d="M1168.4 1727.8L1127.8 1884.4L1284 1870.4Z" fill="#a5c09a" stroke="#a5c09a"></path><path d="M1966.4 1359L2004 1255.4L1956.4 1190.4Z" fill="#bbd2b1" stroke="#bbd2b1"></path><path d="M1942.4 1023.8L1801.8 898.6L1820.4 1004.2Z" fill="#cedfc5" stroke="#cedfc5"></path><path d="M2132 1445L2004 1255.4L1966.4 1359Z" fill="#bbd2b1" stroke="#bbd2b1"></path><path d="M868.2 1139.4L889.6 1155.8L909.6 1007.2Z" fill="#cedfc5" stroke="#cedfc5"></path><path d="M1411.6 1992.4L1544.6 1951L1452 1723.8Z" fill="#9eba92" stroke="#9eba92"></path><path d="M1942.4 1023.8L1789.8 1160.8L1956.4 1190.4Z" fill="#b3cca9" stroke="#b3cca9"></path><path d="M1820.4 1004.2L1801.8 898.6L1765.8 1026.2Z" fill="#b3cca9" stroke="#b3cca9"></path><path d="M1029.2 1823.4L1168.4 1727.8L1061.8 1594.2Z" fill="#b3cca9" stroke="#b3cca9"></path><path d="M1284 1870.4L1411.6 1992.4L1452 1723.8Z" fill="#c2d8b9" stroke="#c2d8b9"></path><path d="M2004 1255.4L1991 1144.8L1956.4 1190.4Z" fill="#acc6a1" stroke="#acc6a1"></path><path d="M897.2 1725.2L1029.2 1823.4L1061.8 1594.2Z" fill="#c6dabd" stroke="#c6dabd"></path><path d="M909.6 1007.2L889.6 1155.8L1119.8 1092.8Z" fill="#caddc1" stroke="#caddc1"></path><path d="M889.6 1155.8L800.6 1214.4L953.2 1428.6Z" fill="#cedfc5" stroke="#cedfc5"></path><path d="M1991 1144.8L1942.4 1023.8L1956.4 1190.4Z" fill="#9eba92" stroke="#9eba92"></path><path d="M1248.4 1998.4L1411.6 1992.4L1284 1870.4Z" fill="#acc6a1" stroke="#acc6a1"></path><path d="M1109.8 895.2L909.6 1007.2L1119.8 1092.8Z" fill="#b3cca9" stroke="#b3cca9"></path><path d="M906.2 1845.8L1024.8 1859.8L1029.2 1823.4Z" fill="#cedfc5" stroke="#cedfc5"></path><path d="M1029.2 1823.4L1024.8 1859.8L1127.8 1884.4Z" fill="#9eba92" stroke="#9eba92"></path><path d="M1127.8 1884.4L1248.4 1998.4L1284 1870.4Z" fill="#9eba92" stroke="#9eba92"></path><path d="M867.6 1469.6L897.2 1725.2L1061.8 1594.2Z" fill="#c2d8b9" stroke="#c2d8b9"></path><path d="M1940.4 1784.8L1703.8 1696.2L1874.8 1870.8Z" fill="#c2d8b9" stroke="#c2d8b9"></path><path d="M1861.4 1618.2L1998 1676.2L1919.4 1550.6Z" fill="#b3cca9" stroke="#b3cca9"></path><path d="M1919.4 1550.6L2092.6 1563.6L1951 1479.6Z" fill="#9eba92" stroke="#9eba92"></path><path d="M1951 1479.6L2132 1445L1966.4 1359Z" fill="#caddc1" stroke="#caddc1"></path><path d="M1703.8 1696.2L1682.2 1739.8L1874.8 1870.8Z" fill="#d6e4ce" stroke="#d6e4ce"></path><path d="M1801.8 898.6L1667.2 769.6L1600.6 879.6Z" fill="#bbd2b1" stroke="#bbd2b1"></path><path d="M1600.6 879.6L1430 663L1373 881.6Z" fill="#d6e4ce" stroke="#d6e4ce"></path><path d="M1122.8 742L1081.8 811.6L1188.4 883.6Z" fill="#a5c09a" stroke="#a5c09a"></path><path d="M1188.4 883.6L1081.8 811.6L1109.8 895.2Z" fill="#9eba92" stroke="#9eba92"></path><path d="M1759.8 754L1667.2 769.6L1801.8 898.6Z" fill="#b3cca9" stroke="#b3cca9"></path><path d="M686 1203.4L800.6 1214.4L675 1079.8Z" fill="#d2e2ca" stroke="#d2e2ca"></path><path d="M868.2 1139.4L800.6 1214.4L889.6 1155.8Z" fill="#c2d8b9" stroke="#c2d8b9"></path><path d="M867.6 1469.6L763.6 1647.2L897.2 1725.2Z" fill="#c6dabd" stroke="#c6dabd"></path><path d="M1082.8 2103.6L1248.4 1998.4L1127.8 1884.4Z" fill="#d2e2ca" stroke="#d2e2ca"></path><path d="M1874.8 1870.8L1819.8 1950L1863.8 1906.4Z" fill="#9eba92" stroke="#9eba92"></path><path d="M1122.8 742L1188.4 883.6L1287.4 653Z" fill="#c2d8b9" stroke="#c2d8b9"></path><path d="M1109.8 895.2L948.2 868.2L909.6 1007.2Z" fill="#bbd2b1" stroke="#bbd2b1"></path><path d="M909.6 1007.2L870.2 1024.8L868.2 1139.4Z" fill="#bbd2b1" stroke="#bbd2b1"></path><path d="M948.2 868.2L870.2 1024.8L909.6 1007.2Z" fill="#caddc1" stroke="#caddc1"></path><path d="M1682.2 1739.8L1620.2 1880.4L1819.8 1950Z" fill="#d6e4ce" stroke="#d6e4ce"></path><path d="M1874.8 1870.8L1682.2 1739.8L1819.8 1950Z" fill="#acc6a1" stroke="#acc6a1"></path><path d="M1274.4 2045L1446 2040L1411.6 1992.4Z" fill="#b3cca9" stroke="#b3cca9"></path><path d="M1411.6 1992.4L1446 2040L1544.6 1951Z" fill="#b3cca9" stroke="#b3cca9"></path><path d="M800.6 1214.4L753.6 1456L867.6 1469.6Z" fill="#a5c09a" stroke="#a5c09a"></path><path d="M1081.8 811.6L1010.2 829.6L1109.8 895.2Z" fill="#d2e2ca" stroke="#d2e2ca"></path><path d="M2100 1713.8L2092.6 1563.6L1998 1676.2Z" fill="#cedfc5" stroke="#cedfc5"></path><path d="M1998 1676.2L2092.6 1563.6L1919.4 1550.6Z" fill="#b3cca9" stroke="#b3cca9"></path><path d="M2004 1255.4L2165.6 1243.4L1991 1144.8Z" fill="#b3cca9" stroke="#b3cca9"></path><path d="M1819.8 1950L1620.2 1880.4L1822.4 1963.4Z" fill="#cedfc5" stroke="#cedfc5"></path><path d="M2088.6 1853.4L2097.6 1763.8L1940.4 1784.8Z" fill="#a5c09a" stroke="#a5c09a"></path><path d="M2097.6 1763.8L2100 1713.8L1998 1676.2Z" fill="#bbd2b1" stroke="#bbd2b1"></path><path d="M1123.8 2129L1274.4 2045L1248.4 1998.4Z" fill="#9eba92" stroke="#9eba92"></path><path d="M1248.4 1998.4L1274.4 2045L1411.6 1992.4Z" fill="#9eba92" stroke="#9eba92"></path><path d="M1973 875.2L1759.8 754L1801.8 898.6Z" fill="#d2e2ca" stroke="#d2e2ca"></path><path d="M1430 663L1349 879.2L1373 881.6Z" fill="#caddc1" stroke="#caddc1"></path><path d="M1010.2 829.6L948.2 868.2L1109.8 895.2Z" fill="#bbd2b1" stroke="#bbd2b1"></path><path d="M1822.4 1963.4L1620.2 1880.4L1628.2 2127Z" fill="#d6e4ce" stroke="#d6e4ce"></path><path d="M1430 663L1600.6 879.6L1511.6 636.4Z" fill="#acc6a1" stroke="#acc6a1"></path><path d="M1081.8 811.6L1122.8 742L1010.2 829.6Z" fill="#bbd2b1" stroke="#bbd2b1"></path><path d="M776.6 771L731 868.2L948.2 868.2Z" fill="#cedfc5" stroke="#cedfc5"></path><path d="M2092.6 1563.6L2132 1445L1951 1479.6Z" fill="#cedfc5" stroke="#cedfc5"></path><path d="M1982.4 880.6L1973 875.2L1942.4 1023.8Z" fill="#cedfc5" stroke="#cedfc5"></path><path d="M1511.6 636.4L1600.6 879.6L1667.2 769.6Z" fill="#bbd2b1" stroke="#bbd2b1"></path><path d="M897.2 1725.2L906.2 1845.8L1029.2 1823.4Z" fill="#cedfc5" stroke="#cedfc5"></path><path d="M1024.8 1859.8L1082.8 2103.6L1127.8 1884.4Z" fill="#b3cca9" stroke="#b3cca9"></path><path d="M847.6 1871.8L906.2 1845.8L897.2 1725.2Z" fill="#bbd2b1" stroke="#bbd2b1"></path><path d="M1628.2 2127L1620.2 1880.4L1544.6 1951Z" fill="#9eba92" stroke="#9eba92"></path><path d="M1819.8 1950L1822.4 1963.4L1863.8 1906.4Z" fill="#c6dabd" stroke="#c6dabd"></path><path d="M753.6 1456L763.6 1647.2L867.6 1469.6Z" fill="#d2e2ca" stroke="#d2e2ca"></path><path d="M1430 663L1287.4 653L1349 879.2Z" fill="#acc6a1" stroke="#acc6a1"></path><path d="M1942.4 1023.8L1973 875.2L1801.8 898.6Z" fill="#c6dabd" stroke="#c6dabd"></path><path d="M1982.4 880.6L1942.4 1023.8L2125.6 1058.8Z" fill="#d6e4ce" stroke="#d6e4ce"></path><path d="M2125.6 1058.8L1942.4 1023.8L1991 1144.8Z" fill="#d2e2ca" stroke="#d2e2ca"></path><path d="M1664.2 625L1511.6 636.4L1667.2 769.6Z" fill="#c2d8b9" stroke="#c2d8b9"></path><path d="M1430 663L1388 587.4L1287.4 653Z" fill="#caddc1" stroke="#caddc1"></path><path d="M2200.6 1321L2165.6 1243.4L2004 1255.4Z" fill="#caddc1" stroke="#caddc1"></path><path d="M1940.4 1784.8L1874.8 1870.8L2088.6 1853.4Z" fill="#cedfc5" stroke="#cedfc5"></path><path d="M2097.6 1763.8L1998 1676.2L1940.4 1784.8Z" fill="#c2d8b9" stroke="#c2d8b9"></path><path d="M2092.6 1563.6L2224.2 1445.6L2132 1445Z" fill="#d2e2ca" stroke="#d2e2ca"></path><path d="M2132 1445L2200.6 1321L2004 1255.4Z" fill="#b3cca9" stroke="#b3cca9"></path><path d="M1511.6 636.4L1419.6 613L1430 663Z" fill="#9eba92" stroke="#9eba92"></path><path d="M2165.6 1243.4L2125.6 1058.8L1991 1144.8Z" fill="#d6e4ce" stroke="#d6e4ce"></path><path d="M675 1079.8L800.6 1214.4L868.2 1139.4Z" fill="#cedfc5" stroke="#cedfc5"></path><path d="M800.6 1214.4L625.4 1267L753.6 1456Z" fill="#c2d8b9" stroke="#c2d8b9"></path><path d="M753.6 1456L625 1644.2L763.6 1647.2Z" fill="#a5c09a" stroke="#a5c09a"></path><path d="M675 1079.8L868.2 1139.4L870.2 1024.8Z" fill="#b3cca9" stroke="#b3cca9"></path><path d="M2224.2 1445.6L2200.6 1321L2132 1445Z" fill="#d6e4ce" stroke="#d6e4ce"></path><path d="M2262.6 1029.2L2166.6 858.6L2125.6 1058.8Z" fill="#a5c09a" stroke="#a5c09a"></path><path d="M721 1812.8L847.6 1871.8L897.2 1725.2Z" fill="#cedfc5" stroke="#cedfc5"></path><path d="M906.2 1845.8L913.6 1994L1024.8 1859.8Z" fill="#d6e4ce" stroke="#d6e4ce"></path><path d="M2088.6 1853.4L1874.8 1870.8L2107 1910.4Z" fill="#bbd2b1" stroke="#bbd2b1"></path><path d="M2220.6 1641.2L2224.2 1445.6L2092.6 1563.6Z" fill="#bbd2b1" stroke="#bbd2b1"></path><path d="M1869.8 628.4L1664.2 625L1759.8 754Z" fill="#caddc1" stroke="#caddc1"></path><path d="M1759.8 754L1664.2 625L1667.2 769.6Z" fill="#cedfc5" stroke="#cedfc5"></path><path d="M1515.6 393.8L1388 587.4L1419.6 613Z" fill="#c2d8b9" stroke="#c2d8b9"></path><path d="M1869.8 628.4L1759.8 754L1973 875.2Z" fill="#9eba92" stroke="#9eba92"></path><path d="M1596.2 2177.6L1628.2 2127L1446 2040Z" fill="#b3cca9" stroke="#b3cca9"></path><path d="M1446 2040L1628.2 2127L1544.6 1951Z" fill="#d6e4ce" stroke="#d6e4ce"></path><path d="M2107 1910.4L1874.8 1870.8L1863.8 1906.4Z" fill="#9eba92" stroke="#9eba92"></path><path d="M1419.6 613L1388 587.4L1430 663Z" fill="#d2e2ca" stroke="#d2e2ca"></path><path d="M1287.4 653L1147.8 552.4L1122.8 742Z" fill="#9eba92" stroke="#9eba92"></path><path d="M1599.2 510.4L1419.6 613L1511.6 636.4Z" fill="#caddc1" stroke="#caddc1"></path><path d="M2220.6 1641.2L2092.6 1563.6L2100 1713.8Z" fill="#caddc1" stroke="#caddc1"></path><path d="M625.4 1267L631.4 1412.6L753.6 1456Z" fill="#caddc1" stroke="#caddc1"></path><path d="M700 1949.4L832.6 1948.4L847.6 1871.8Z" fill="#9eba92" stroke="#9eba92"></path><path d="M635.4 1010.2L675 1079.8L641.4 994.8Z" fill="#cedfc5" stroke="#cedfc5"></path><path d="M686 1203.4L625.4 1267L800.6 1214.4Z" fill="#cedfc5" stroke="#cedfc5"></path><path d="M1388 587.4L1258.4 576.4L1287.4 653Z" fill="#d2e2ca" stroke="#d2e2ca"></path><path d="M957.2 641L948.2 868.2L1010.2 829.6Z" fill="#caddc1" stroke="#caddc1"></path><path d="M948.2 868.2L731 868.2L870.2 1024.8Z" fill="#d6e4ce" stroke="#d6e4ce"></path><path d="M847.6 1871.8L913.6 1994L906.2 1845.8Z" fill="#d2e2ca" stroke="#d2e2ca"></path><path d="M1560.6 2244.6L1596.2 2177.6L1446 2040Z" fill="#acc6a1" stroke="#acc6a1"></path><path d="M913.6 1994L1082.8 2103.6L1024.8 1859.8Z" fill="#caddc1" stroke="#caddc1"></path><path d="M475.4 1175.4L625.4 1267L686 1203.4Z" fill="#caddc1" stroke="#caddc1"></path><path d="M1908.4 2086L1863.8 1906.4L1822.4 1963.4Z" fill="#c6dabd" stroke="#c6dabd"></path><path d="M2097.6 1763.8L2220.6 1641.2L2100 1713.8Z" fill="#acc6a1" stroke="#acc6a1"></path><path d="M1596.2 2177.6L1702.8 2140.6L1628.2 2127Z" fill="#acc6a1" stroke="#acc6a1"></path><path d="M1628.2 2127L1702.8 2140.6L1822.4 1963.4Z" fill="#a5c09a" stroke="#a5c09a"></path><path d="M1082.8 2103.6L1123.8 2129L1248.4 1998.4Z" fill="#bbd2b1" stroke="#bbd2b1"></path><path d="M1364 2220.6L1446 2040L1274.4 2045Z" fill="#9eba92" stroke="#9eba92"></path><path d="M2322.2 1705.2L2220.6 1641.2L2097.6 1763.8Z" fill="#d2e2ca" stroke="#d2e2ca"></path><path d="M847.6 1871.8L832.6 1948.4L913.6 1994Z" fill="#9eba92" stroke="#9eba92"></path><path d="M967.2 2247.2L1123.8 2129L1082.8 2103.6Z" fill="#d2e2ca" stroke="#d2e2ca"></path><path d="M721 1812.8L897.2 1725.2L763.6 1647.2Z" fill="#caddc1" stroke="#caddc1"></path><path d="M625 1644.2L721 1812.8L763.6 1647.2Z" fill="#caddc1" stroke="#caddc1"></path><path d="M625.4 1267L588 1389L631.4 1412.6Z" fill="#a5c09a" stroke="#a5c09a"></path><path d="M631.4 1412.6L588 1473.6L753.6 1456Z" fill="#d2e2ca" stroke="#d2e2ca"></path><path d="M475.4 1175.4L588 1389L625.4 1267Z" fill="#d2e2ca" stroke="#d2e2ca"></path><path d="M2166.6 858.6L2067 802.6L1982.4 880.6Z" fill="#a5c09a" stroke="#a5c09a"></path><path d="M1982.4 880.6L2067 802.6L1973 875.2Z" fill="#c6dabd" stroke="#c6dabd"></path><path d="M2166.6 858.6L1982.4 880.6L2125.6 1058.8Z" fill="#9eba92" stroke="#9eba92"></path><path d="M588 1389L588 1473.6L631.4 1412.6Z" fill="#acc6a1" stroke="#acc6a1"></path><path d="M588 1473.6L625 1644.2L753.6 1456Z" fill="#d6e4ce" stroke="#d6e4ce"></path><path d="M1172.4 2192.6L1364 2220.6L1274.4 2045Z" fill="#caddc1" stroke="#caddc1"></path><path d="M2067 802.6L1869.8 628.4L1973 875.2Z" fill="#d6e4ce" stroke="#d6e4ce"></path><path d="M1409 397.8L1296.4 506.8L1388 587.4Z" fill="#d2e2ca" stroke="#d2e2ca"></path><path d="M1812.4 2181.6L1822.4 1963.4L1702.8 2140.6Z" fill="#a5c09a" stroke="#a5c09a"></path><path d="M1812.4 2181.6L1908.4 2086L1822.4 1963.4Z" fill="#c2d8b9" stroke="#c2d8b9"></path><path d="M957.2 641L1010.2 829.6L1122.8 742Z" fill="#d2e2ca" stroke="#d2e2ca"></path><path d="M675 1079.8L475.4 1175.4L686 1203.4Z" fill="#cedfc5" stroke="#cedfc5"></path><path d="M967.2 2247.2L1172.4 2192.6L1123.8 2129Z" fill="#d2e2ca" stroke="#d2e2ca"></path><path d="M1123.8 2129L1172.4 2192.6L1274.4 2045Z" fill="#a5c09a" stroke="#a5c09a"></path><path d="M880.2 2074L1082.8 2103.6L913.6 1994Z" fill="#d2e2ca" stroke="#d2e2ca"></path><path d="M1908.4 2086L2107 1910.4L1863.8 1906.4Z" fill="#caddc1" stroke="#caddc1"></path><path d="M2341.2 1780.8L2322.2 1705.2L2097.6 1763.8Z" fill="#acc6a1" stroke="#acc6a1"></path><path d="M1296.4 506.8L1147.8 552.4L1258.4 576.4Z" fill="#bbd2b1" stroke="#bbd2b1"></path><path d="M1258.4 576.4L1147.8 552.4L1287.4 653Z" fill="#9eba92" stroke="#9eba92"></path><path d="M1296.4 506.8L1258.4 576.4L1388 587.4Z" fill="#c2d8b9" stroke="#c2d8b9"></path><path d="M1147.8 552.4L957.2 641L1122.8 742Z" fill="#9eba92" stroke="#9eba92"></path><path d="M1599.2 510.4L1511.6 636.4L1664.2 625Z" fill="#c6dabd" stroke="#c6dabd"></path><path d="M641.4 994.8L675 1079.8L870.2 1024.8Z" fill="#d2e2ca" stroke="#d2e2ca"></path><path d="M1601.2 474.8L1599.2 510.4L1853.4 503.4Z" fill="#c6dabd" stroke="#c6dabd"></path><path d="M731 868.2L641.4 994.8L870.2 1024.8Z" fill="#d2e2ca" stroke="#d2e2ca"></path><path d="M1364 2220.6L1560.6 2244.6L1446 2040Z" fill="#caddc1" stroke="#caddc1"></path><path d="M1596.2 2177.6L1594.2 2357.2L1702.8 2140.6Z" fill="#d6e4ce" stroke="#d6e4ce"></path><path d="M957.2 641L776.6 771L948.2 868.2Z" fill="#9eba92" stroke="#9eba92"></path><path d="M731 868.2L633 855.6L641.4 994.8Z" fill="#c6dabd" stroke="#c6dabd"></path><path d="M2262.6 1029.2L2125.6 1058.8L2165.6 1243.4Z" fill="#acc6a1" stroke="#acc6a1"></path><path d="M2067 802.6L1955 594L1869.8 628.4Z" fill="#c2d8b9" stroke="#c2d8b9"></path><path d="M2262.6 1029.2L2165.6 1243.4L2328.2 1273Z" fill="#cedfc5" stroke="#cedfc5"></path><path d="M835.6 2092.6L880.2 2074L832.6 1948.4Z" fill="#c2d8b9" stroke="#c2d8b9"></path><path d="M832.6 1948.4L880.2 2074L913.6 1994Z" fill="#bbd2b1" stroke="#bbd2b1"></path><path d="M2328.2 1273L2165.6 1243.4L2200.6 1321Z" fill="#bbd2b1" stroke="#bbd2b1"></path><path d="M2328.2 1273L2200.6 1321L2334.2 1311.4Z" fill="#caddc1" stroke="#caddc1"></path><path d="M1845.8 2240.2L1812.4 2181.6L1702.8 2140.6Z" fill="#c2d8b9" stroke="#c2d8b9"></path><path d="M1908.4 2086L2004 2134L2107 1910.4Z" fill="#d6e4ce" stroke="#d6e4ce"></path><path d="M2334.2 1311.4L2200.6 1321L2224.2 1445.6Z" fill="#bbd2b1" stroke="#bbd2b1"></path><path d="M2511.8 1463.6L2334.2 1311.4L2224.2 1445.6Z" fill="#d2e2ca" stroke="#d2e2ca"></path><path d="M1853.4 503.4L1599.2 510.4L1664.2 625Z" fill="#b3cca9" stroke="#b3cca9"></path><path d="M1515.6 393.8L1409 397.8L1388 587.4Z" fill="#acc6a1" stroke="#acc6a1"></path><path d="M1147.8 552.4L916.2 608.4L957.2 641Z" fill="#a5c09a" stroke="#a5c09a"></path><path d="M957.2 641L761.6 733.6L776.6 771Z" fill="#d6e4ce" stroke="#d6e4ce"></path><path d="M732.6 567.4L916.2 608.4L736 495.8Z" fill="#acc6a1" stroke="#acc6a1"></path><path d="M916.2 608.4L761.6 733.6L957.2 641Z" fill="#acc6a1" stroke="#acc6a1"></path><path d="M679 747L633 855.6L731 868.2Z" fill="#bbd2b1" stroke="#bbd2b1"></path><path d="M2526.8 1290.4L2361.8 1275L2334.2 1311.4Z" fill="#c6dabd" stroke="#c6dabd"></path><path d="M2334.2 1311.4L2361.8 1275L2328.2 1273Z" fill="#d2e2ca" stroke="#d2e2ca"></path><path d="M2328.2 1273L2374.2 1009.8L2262.6 1029.2Z" fill="#a5c09a" stroke="#a5c09a"></path><path d="M1968.4 593L1955 594L2067 802.6Z" fill="#caddc1" stroke="#caddc1"></path><path d="M1869.8 628.4L1853.4 503.4L1664.2 625Z" fill="#acc6a1" stroke="#acc6a1"></path><path d="M502.4 1838.4L700 1949.4L721 1812.8Z" fill="#acc6a1" stroke="#acc6a1"></path><path d="M721 1812.8L700 1949.4L847.6 1871.8Z" fill="#d6e4ce" stroke="#d6e4ce"></path><path d="M730 1991L835.6 2092.6L832.6 1948.4Z" fill="#bbd2b1" stroke="#bbd2b1"></path><path d="M880.2 2074L947.2 2190.6L1082.8 2103.6Z" fill="#c2d8b9" stroke="#c2d8b9"></path><path d="M700 1949.4L730 1991L832.6 1948.4Z" fill="#d6e4ce" stroke="#d6e4ce"></path><path d="M2040 576.4L1968.4 593L2107.6 614.4Z" fill="#9eba92" stroke="#9eba92"></path><path d="M1955 594L1853.4 503.4L1869.8 628.4Z" fill="#cedfc5" stroke="#cedfc5"></path><path d="M679 747L731 868.2L776.6 771Z" fill="#d6e4ce" stroke="#d6e4ce"></path><path d="M641.4 994.8L452.4 853.6L635.4 1010.2Z" fill="#bbd2b1" stroke="#bbd2b1"></path><path d="M635.4 1010.2L475.4 1175.4L675 1079.8Z" fill="#caddc1" stroke="#caddc1"></path><path d="M2341.2 1780.8L2097.6 1763.8L2088.6 1853.4Z" fill="#d2e2ca" stroke="#d2e2ca"></path><path d="M2220.6 1641.2L2322.2 1705.2L2224.2 1445.6Z" fill="#9eba92" stroke="#9eba92"></path><path d="M835.6 2092.6L947.2 2190.6L880.2 2074Z" fill="#9eba92" stroke="#9eba92"></path><path d="M1257.4 2368.2L1358 2356.2L1364 2220.6Z" fill="#a5c09a" stroke="#a5c09a"></path><path d="M1364 2220.6L1358 2356.2L1560.6 2244.6Z" fill="#c2d8b9" stroke="#c2d8b9"></path><path d="M1845.8 2240.2L1908.4 2086L1812.4 2181.6Z" fill="#d2e2ca" stroke="#d2e2ca"></path><path d="M1845.8 2240.2L2004 2134L1908.4 2086Z" fill="#d6e4ce" stroke="#d6e4ce"></path><path d="M2107 1910.4L2341.2 1780.8L2088.6 1853.4Z" fill="#bbd2b1" stroke="#bbd2b1"></path><path d="M1975.4 395.8L1853.4 503.4L1955 594Z" fill="#d2e2ca" stroke="#d2e2ca"></path><path d="M1594.2 2357.2L1845.8 2240.2L1702.8 2140.6Z" fill="#c6dabd" stroke="#c6dabd"></path><path d="M1515.6 393.8L1599.2 510.4L1601.2 474.8Z" fill="#d2e2ca" stroke="#d2e2ca"></path><path d="M1515.6 393.8L1419.6 613L1599.2 510.4Z" fill="#b3cca9" stroke="#b3cca9"></path><path d="M1296.4 506.8L1067.8 354.8L1147.8 552.4Z" fill="#a5c09a" stroke="#a5c09a"></path><path d="M360.8 1132.4L475.4 1175.4L452.4 853.6Z" fill="#bbd2b1" stroke="#bbd2b1"></path><path d="M387.8 1530.6L458.4 1568.2L588 1473.6Z" fill="#bbd2b1" stroke="#bbd2b1"></path><path d="M588 1473.6L458.4 1568.2L625 1644.2Z" fill="#c2d8b9" stroke="#c2d8b9"></path><path d="M625 1644.2L502.4 1838.4L721 1812.8Z" fill="#a5c09a" stroke="#a5c09a"></path><path d="M761.6 733.6L679 747L776.6 771Z" fill="#d6e4ce" stroke="#d6e4ce"></path><path d="M452.4 853.6L475.4 1175.4L635.4 1010.2Z" fill="#a5c09a" stroke="#a5c09a"></path><path d="M732.6 567.4L679 747L761.6 733.6Z" fill="#9eba92" stroke="#9eba92"></path><path d="M1694.8 360.8L1515.6 393.8L1601.2 474.8Z" fill="#d6e4ce" stroke="#d6e4ce"></path><path d="M1257.4 2368.2L1364 2220.6L1172.4 2192.6Z" fill="#c2d8b9" stroke="#c2d8b9"></path><path d="M1560.6 2244.6L1594.2 2357.2L1596.2 2177.6Z" fill="#cedfc5" stroke="#cedfc5"></path><path d="M724 2252.6L967.2 2247.2L947.2 2190.6Z" fill="#b3cca9" stroke="#b3cca9"></path><path d="M947.2 2190.6L967.2 2247.2L1082.8 2103.6Z" fill="#bbd2b1" stroke="#bbd2b1"></path><path d="M724 2252.6L947.2 2190.6L835.6 2092.6Z" fill="#bbd2b1" stroke="#bbd2b1"></path><path d="M387.8 1530.6L588 1473.6L588 1389Z" fill="#caddc1" stroke="#caddc1"></path><path d="M2358.2 1812.4L2341.2 1780.8L2107 1910.4Z" fill="#c6dabd" stroke="#c6dabd"></path><path d="M2517.4 1541.6L2511.8 1463.6L2224.2 1445.6Z" fill="#b3cca9" stroke="#b3cca9"></path><path d="M2107.6 614.4L1968.4 593L2067 802.6Z" fill="#c2d8b9" stroke="#c2d8b9"></path><path d="M1968.4 593L1975.4 395.8L1955 594Z" fill="#caddc1" stroke="#caddc1"></path><path d="M2203.6 717L2067 802.6L2166.6 858.6Z" fill="#d2e2ca" stroke="#d2e2ca"></path><path d="M1384 2387.8L1594.2 2357.2L1560.6 2244.6Z" fill="#cedfc5" stroke="#cedfc5"></path><path d="M2394.2 934.2L2374.2 1009.8L2431.8 924.2Z" fill="#cedfc5" stroke="#cedfc5"></path><path d="M2361.8 1275L2374.2 1009.8L2328.2 1273Z" fill="#d2e2ca" stroke="#d2e2ca"></path><path d="M2262.6 1029.2L2394.2 934.2L2166.6 858.6Z" fill="#caddc1" stroke="#caddc1"></path><path d="M2261.2 731.6L2203.6 717L2166.6 858.6Z" fill="#d6e4ce" stroke="#d6e4ce"></path><path d="M458.4 1568.2L458.8 1638.2L625 1644.2Z" fill="#acc6a1" stroke="#acc6a1"></path><path d="M502.8 2137L724 2252.6L730 1991Z" fill="#caddc1" stroke="#caddc1"></path><path d="M2203.6 717L2107.6 614.4L2067 802.6Z" fill="#cedfc5" stroke="#cedfc5"></path><path d="M1163.4 2365.8L1257.4 2368.2L1172.4 2192.6Z" fill="#a5c09a" stroke="#a5c09a"></path><path d="M1358 2356.2L1384 2387.8L1560.6 2244.6Z" fill="#d6e4ce" stroke="#d6e4ce"></path><path d="M1257.4 2368.2L1384 2387.8L1358 2356.2Z" fill="#bbd2b1" stroke="#bbd2b1"></path><path d="M2223.6 2075L2358.2 1812.4L2107 1910.4Z" fill="#a5c09a" stroke="#a5c09a"></path><path d="M2517.4 1541.6L2224.2 1445.6L2322.2 1705.2Z" fill="#d2e2ca" stroke="#d2e2ca"></path><path d="M1384 2387.8L1587.6 2384.2L1594.2 2357.2Z" fill="#bbd2b1" stroke="#bbd2b1"></path><path d="M1594.2 2357.2L1807.8 2403.8L1845.8 2240.2Z" fill="#d6e4ce" stroke="#d6e4ce"></path><path d="M1058.8 2351.2L1163.4 2365.8L1172.4 2192.6Z" fill="#bbd2b1" stroke="#bbd2b1"></path><path d="M1423 2612.4L1464.6 2478.8L1310.4 2609.4Z" fill="#c2d8b9" stroke="#c2d8b9"></path><path d="M1826.4 314.2L1694.8 360.8L1853.4 503.4Z" fill="#9eba92" stroke="#9eba92"></path><path d="M1853.4 503.4L1694.8 360.8L1601.2 474.8Z" fill="#bbd2b1" stroke="#bbd2b1"></path><path d="M1515.6 393.8L1554.6 307.2L1409 397.8Z" fill="#bbd2b1" stroke="#bbd2b1"></path><path d="M1975.4 395.8L1968.4 593L2040 576.4Z" fill="#d6e4ce" stroke="#d6e4ce"></path><path d="M458.8 1638.2L502.4 1838.4L625 1644.2Z" fill="#d2e2ca" stroke="#d2e2ca"></path><path d="M730 1991L724 2252.6L835.6 2092.6Z" fill="#acc6a1" stroke="#acc6a1"></path><path d="M2394.2 934.2L2261.2 731.6L2166.6 858.6Z" fill="#acc6a1" stroke="#acc6a1"></path><path d="M2203.6 717L2226.2 652L2107.6 614.4Z" fill="#a5c09a" stroke="#a5c09a"></path><path d="M936.2 2497.8L1058.8 2351.2L967.2 2247.2Z" fill="#c2d8b9" stroke="#c2d8b9"></path><path d="M967.2 2247.2L1058.8 2351.2L1172.4 2192.6Z" fill="#c6dabd" stroke="#c6dabd"></path><path d="M2374.2 1009.8L2394.2 934.2L2262.6 1029.2Z" fill="#acc6a1" stroke="#acc6a1"></path><path d="M2431.8 924.2L2374.2 1009.8L2511.8 1019.8Z" fill="#cedfc5" stroke="#cedfc5"></path><path d="M2001 2267.6L2199.6 2094.6L2004 2134Z" fill="#caddc1" stroke="#caddc1"></path><path d="M2004 2134L2199.6 2094.6L2107 1910.4Z" fill="#a5c09a" stroke="#a5c09a"></path><path d="M2001 2267.6L2004 2134L1845.8 2240.2Z" fill="#bbd2b1" stroke="#bbd2b1"></path><path d="M309.8 1421L387.8 1530.6L588 1389Z" fill="#acc6a1" stroke="#acc6a1"></path><path d="M458.4 1568.2L387.8 1530.6L458.8 1638.2Z" fill="#cedfc5" stroke="#cedfc5"></path><path d="M327.8 1867.8L487.4 1864.8L502.4 1838.4Z" fill="#cedfc5" stroke="#cedfc5"></path><path d="M2199.6 2094.6L2223.6 2075L2107 1910.4Z" fill="#c6dabd" stroke="#c6dabd"></path><path d="M1954 2302.2L2001 2267.6L1845.8 2240.2Z" fill="#d6e4ce" stroke="#d6e4ce"></path><path d="M2199.6 2094.6L2320.2 2144L2223.6 2075Z" fill="#9eba92" stroke="#9eba92"></path><path d="M916.2 608.4L732.6 567.4L761.6 733.6Z" fill="#9eba92" stroke="#9eba92"></path><path d="M452.4 853.6L641.4 994.8L633 855.6Z" fill="#cedfc5" stroke="#cedfc5"></path><path d="M940.2 374.8L916.2 608.4L1147.8 552.4Z" fill="#caddc1" stroke="#caddc1"></path><path d="M327.8 1867.8L502.4 1838.4L458.8 1638.2Z" fill="#c2d8b9" stroke="#c2d8b9"></path><path d="M502.4 1838.4L487.4 1864.8L700 1949.4Z" fill="#acc6a1" stroke="#acc6a1"></path><path d="M1694.8 360.8L1554.6 307.2L1515.6 393.8Z" fill="#bbd2b1" stroke="#bbd2b1"></path><path d="M1225.4 220.2L1067.8 354.8L1296.4 506.8Z" fill="#d6e4ce" stroke="#d6e4ce"></path><path d="M1872.4 2392.2L1954 2302.2L1845.8 2240.2Z" fill="#a5c09a" stroke="#a5c09a"></path><path d="M2331.2 561.4L2226.2 652L2261.2 731.6Z" fill="#bbd2b1" stroke="#bbd2b1"></path><path d="M2261.2 731.6L2226.2 652L2203.6 717Z" fill="#c6dabd" stroke="#c6dabd"></path><path d="M2121 389.8L1975.4 395.8L2040 576.4Z" fill="#cedfc5" stroke="#cedfc5"></path><path d="M1340 264.2L1296.4 506.8L1409 397.8Z" fill="#caddc1" stroke="#caddc1"></path><path d="M2517.4 1541.6L2322.2 1705.2L2528.4 1609.2Z" fill="#d2e2ca" stroke="#d2e2ca"></path><path d="M2510.4 1115.8L2374.2 1009.8L2361.8 1275Z" fill="#cedfc5" stroke="#cedfc5"></path><path d="M2394.2 934.2L2428.8 787.6L2261.2 731.6Z" fill="#bbd2b1" stroke="#bbd2b1"></path><path d="M1688.8 265.2L1559.2 280.2L1554.6 307.2Z" fill="#d6e4ce" stroke="#d6e4ce"></path><path d="M1554.6 307.2L1340 264.2L1409 397.8Z" fill="#c2d8b9" stroke="#c2d8b9"></path><path d="M1688.8 265.2L1554.6 307.2L1694.8 360.8Z" fill="#bbd2b1" stroke="#bbd2b1"></path><path d="M2551.4 1364L2526.8 1290.4L2334.2 1311.4Z" fill="#acc6a1" stroke="#acc6a1"></path><path d="M452.4 853.6L633 855.6L516.4 740Z" fill="#d6e4ce" stroke="#d6e4ce"></path><path d="M475.4 1175.4L309.8 1421L588 1389Z" fill="#b3cca9" stroke="#b3cca9"></path><path d="M2322.2 1705.2L2341.2 1780.8L2503.8 1737.2Z" fill="#b3cca9" stroke="#b3cca9"></path><path d="M2528.4 1609.2L2322.2 1705.2L2503.8 1737.2Z" fill="#d6e4ce" stroke="#d6e4ce"></path><path d="M2511.8 1463.6L2551.4 1364L2334.2 1311.4Z" fill="#c6dabd" stroke="#c6dabd"></path><path d="M1613.2 2467.8L1594.2 2357.2L1587.6 2384.2Z" fill="#d2e2ca" stroke="#d2e2ca"></path><path d="M1613.2 2467.8L1807.8 2403.8L1594.2 2357.2Z" fill="#cedfc5" stroke="#cedfc5"></path><path d="M2526.8 1290.4L2510.4 1115.8L2361.8 1275Z" fill="#c6dabd" stroke="#c6dabd"></path><path d="M516.4 740L633 855.6L679 747Z" fill="#caddc1" stroke="#caddc1"></path><path d="M1559.2 280.2L1340 264.2L1554.6 307.2Z" fill="#b3cca9" stroke="#b3cca9"></path><path d="M994.8 307.2L940.2 374.8L1067.8 354.8Z" fill="#bbd2b1" stroke="#bbd2b1"></path><path d="M1067.8 354.8L940.2 374.8L1147.8 552.4Z" fill="#9eba92" stroke="#9eba92"></path><path d="M1464.6 2478.8L1384 2387.8L1310.4 2609.4Z" fill="#9eba92" stroke="#9eba92"></path><path d="M1384 2387.8L1464.6 2478.8L1587.6 2384.2Z" fill="#caddc1" stroke="#caddc1"></path><path d="M1106.8 2494.8L1257.4 2368.2L1163.4 2365.8Z" fill="#c2d8b9" stroke="#c2d8b9"></path><path d="M593 596.4L679 747L732.6 567.4Z" fill="#cedfc5" stroke="#cedfc5"></path><path d="M593 596.4L516.4 740L679 747Z" fill="#d6e4ce" stroke="#d6e4ce"></path><path d="M1464.6 2478.8L1613.2 2467.8L1587.6 2384.2Z" fill="#bbd2b1" stroke="#bbd2b1"></path><path d="M1910.4 2455.8L1872.4 2392.2L1807.8 2403.8Z" fill="#d6e4ce" stroke="#d6e4ce"></path><path d="M1807.8 2403.8L1872.4 2392.2L1845.8 2240.2Z" fill="#9eba92" stroke="#9eba92"></path><path d="M1954 2302.2L2096 2458.8L2001 2267.6Z" fill="#acc6a1" stroke="#acc6a1"></path><path d="M2249.6 2242.2L2320.2 2144L2199.6 2094.6Z" fill="#c2d8b9" stroke="#c2d8b9"></path><path d="M2206.6 462.8L2040 576.4L2107.6 614.4Z" fill="#d2e2ca" stroke="#d2e2ca"></path><path d="M940.2 374.8L736 495.8L916.2 608.4Z" fill="#9eba92" stroke="#9eba92"></path><path d="M2732 1424.6L2551.4 1364L2511.8 1463.6Z" fill="#d2e2ca" stroke="#d2e2ca"></path><path d="M2526.8 1290.4L2572.4 1305.4L2510.4 1115.8Z" fill="#d2e2ca" stroke="#d2e2ca"></path><path d="M2503.8 1737.2L2341.2 1780.8L2358.2 1812.4Z" fill="#d6e4ce" stroke="#d6e4ce"></path><path d="M2517.4 1541.6L2732 1424.6L2511.8 1463.6Z" fill="#d6e4ce" stroke="#d6e4ce"></path><path d="M266.2 1369L309.8 1421L475.4 1175.4Z" fill="#d6e4ce" stroke="#d6e4ce"></path><path d="M387.8 1530.6L311.2 1555.2L458.8 1638.2Z" fill="#9eba92" stroke="#9eba92"></path><path d="M1975.4 395.8L1826.4 314.2L1853.4 503.4Z" fill="#a5c09a" stroke="#a5c09a"></path><path d="M307.2 1014.8L325.8 1140.8L360.8 1132.4Z" fill="#caddc1" stroke="#caddc1"></path><path d="M360.8 1132.4L325.8 1140.8L475.4 1175.4Z" fill="#acc6a1" stroke="#acc6a1"></path><path d="M2433.8 1899.4L2503.8 1737.2L2358.2 1812.4Z" fill="#caddc1" stroke="#caddc1"></path><path d="M505.4 2080L730 1991L700 1949.4Z" fill="#d2e2ca" stroke="#d2e2ca"></path><path d="M1058.8 2351.2L1106.8 2494.8L1163.4 2365.8Z" fill="#a5c09a" stroke="#a5c09a"></path><path d="M2395.8 2076L2433.8 1899.4L2223.6 2075Z" fill="#b3cca9" stroke="#b3cca9"></path><path d="M2223.6 2075L2433.8 1899.4L2358.2 1812.4Z" fill="#c2d8b9" stroke="#c2d8b9"></path><path d="M1826.4 314.2L1688.8 265.2L1694.8 360.8Z" fill="#9eba92" stroke="#9eba92"></path><path d="M1338 80.6L1225.4 220.2L1340 264.2Z" fill="#cedfc5" stroke="#cedfc5"></path><path d="M2661.4 1002.2L2511.8 1019.8L2510.4 1115.8Z" fill="#b3cca9" stroke="#b3cca9"></path><path d="M2510.4 1115.8L2511.8 1019.8L2374.2 1009.8Z" fill="#d6e4ce" stroke="#d6e4ce"></path><path d="M2431.8 924.2L2428.8 787.6L2394.2 934.2Z" fill="#a5c09a" stroke="#a5c09a"></path><path d="M309.8 1421L311.2 1555.2L387.8 1530.6Z" fill="#acc6a1" stroke="#acc6a1"></path><path d="M607.4 573.4L593 596.4L732.6 567.4Z" fill="#cedfc5" stroke="#cedfc5"></path><path d="M401.8 733.6L365.8 887.2L452.4 853.6Z" fill="#c2d8b9" stroke="#c2d8b9"></path><path d="M2732 1424.6L2572.4 1305.4L2551.4 1364Z" fill="#bbd2b1" stroke="#bbd2b1"></path><path d="M2551.4 1364L2572.4 1305.4L2526.8 1290.4Z" fill="#d2e2ca" stroke="#d2e2ca"></path><path d="M736 495.8L607.4 573.4L732.6 567.4Z" fill="#c2d8b9" stroke="#c2d8b9"></path><path d="M1050.8 189.6L994.8 307.2L1067.8 354.8Z" fill="#b3cca9" stroke="#b3cca9"></path><path d="M940.2 374.8L750.6 354.8L736 495.8Z" fill="#acc6a1" stroke="#acc6a1"></path><path d="M736 495.8L577.4 401.8L607.4 573.4Z" fill="#b3cca9" stroke="#b3cca9"></path><path d="M2537.8 776L2428.8 787.6L2431.8 924.2Z" fill="#a5c09a" stroke="#a5c09a"></path><path d="M2226.2 652L2206.6 462.8L2107.6 614.4Z" fill="#a5c09a" stroke="#a5c09a"></path><path d="M325.8 1140.8L266.2 1369L475.4 1175.4Z" fill="#d2e2ca" stroke="#d2e2ca"></path><path d="M309.8 1421L273.2 1539.6L311.2 1555.2Z" fill="#cedfc5" stroke="#cedfc5"></path><path d="M1449.6 133.6L1340 264.2L1559.2 280.2Z" fill="#9eba92" stroke="#9eba92"></path><path d="M1340 264.2L1225.4 220.2L1296.4 506.8Z" fill="#bbd2b1" stroke="#bbd2b1"></path><path d="M487.4 1864.8L505.4 2080L700 1949.4Z" fill="#cedfc5" stroke="#cedfc5"></path><path d="M414.8 1984.4L505.4 2080L487.4 1864.8Z" fill="#a5c09a" stroke="#a5c09a"></path><path d="M401.8 733.6L452.4 853.6L516.4 740Z" fill="#c2d8b9" stroke="#c2d8b9"></path><path d="M452.4 853.6L307.2 1014.8L360.8 1132.4Z" fill="#c6dabd" stroke="#c6dabd"></path><path d="M325.8 1140.8L231.2 1253.4L266.2 1369Z" fill="#9eba92" stroke="#9eba92"></path><path d="M401.8 733.6L516.4 740L392.8 533.4Z" fill="#a5c09a" stroke="#a5c09a"></path><path d="M936.2 2497.8L1106.8 2494.8L1058.8 2351.2Z" fill="#bbd2b1" stroke="#bbd2b1"></path><path d="M218.6 1488.6L273.2 1539.6L309.8 1421Z" fill="#9eba92" stroke="#9eba92"></path><path d="M327.8 1867.8L414.8 1984.4L487.4 1864.8Z" fill="#c6dabd" stroke="#c6dabd"></path><path d="M2249.6 2242.2L2199.6 2094.6L2001 2267.6Z" fill="#bbd2b1" stroke="#bbd2b1"></path><path d="M365.8 887.2L307.2 1014.8L452.4 853.6Z" fill="#b3cca9" stroke="#b3cca9"></path><path d="M1765.8 2627.4L1910.4 2455.8L1807.8 2403.8Z" fill="#caddc1" stroke="#caddc1"></path><path d="M1872.4 2392.2L1910.4 2455.8L1954 2302.2Z" fill="#d6e4ce" stroke="#d6e4ce"></path><path d="M1765.8 2627.4L1807.8 2403.8L1613.2 2467.8Z" fill="#bbd2b1" stroke="#bbd2b1"></path><path d="M327.8 1867.8L458.8 1638.2L204.2 1755.8Z" fill="#c2d8b9" stroke="#c2d8b9"></path><path d="M2331.2 561.4L2206.6 462.8L2226.2 652Z" fill="#c6dabd" stroke="#c6dabd"></path><path d="M1975.4 395.8L1953.4 193.6L1826.4 314.2Z" fill="#b3cca9" stroke="#b3cca9"></path><path d="M2320.2 2144L2395.8 2076L2223.6 2075Z" fill="#c6dabd" stroke="#c6dabd"></path><path d="M2433.8 1899.4L2555.8 1796.8L2503.8 1737.2Z" fill="#c2d8b9" stroke="#c2d8b9"></path><path d="M2116.6 2459.8L2249.6 2242.2L2001 2267.6Z" fill="#a5c09a" stroke="#a5c09a"></path><path d="M2320.2 2144L2381.8 2142.6L2395.8 2076Z" fill="#acc6a1" stroke="#acc6a1"></path><path d="M2206.6 462.8L2121 389.8L2040 576.4Z" fill="#c2d8b9" stroke="#c2d8b9"></path><path d="M1640.2 100.6L1559.2 280.2L1688.8 265.2Z" fill="#bbd2b1" stroke="#bbd2b1"></path><path d="M2503.8 1737.2L2649.4 1693.8L2528.4 1609.2Z" fill="#acc6a1" stroke="#acc6a1"></path><path d="M2528.4 1609.2L2649.4 1693.8L2517.4 1541.6Z" fill="#cedfc5" stroke="#cedfc5"></path><path d="M2583.4 1883.4L2555.8 1796.8L2433.8 1899.4Z" fill="#b3cca9" stroke="#b3cca9"></path><path d="M1050.8 189.6L964.2 261.2L994.8 307.2Z" fill="#a5c09a" stroke="#a5c09a"></path><path d="M994.8 307.2L964.2 261.2L940.2 374.8Z" fill="#d2e2ca" stroke="#d2e2ca"></path><path d="M505.4 2080L502.8 2137L730 1991Z" fill="#acc6a1" stroke="#acc6a1"></path><path d="M724 2252.6L746.6 2387.2L967.2 2247.2Z" fill="#a5c09a" stroke="#a5c09a"></path><path d="M476.8 2131.6L502.8 2137L505.4 2080Z" fill="#d6e4ce" stroke="#d6e4ce"></path><path d="M72.6 1129.8L231.2 1253.4L325.8 1140.8Z" fill="#a5c09a" stroke="#a5c09a"></path><path d="M266.2 1369L218.6 1488.6L309.8 1421Z" fill="#a5c09a" stroke="#a5c09a"></path><path d="M2428.8 787.6L2331.2 561.4L2261.2 731.6Z" fill="#9eba92" stroke="#9eba92"></path><path d="M2228.2 322.2L2089.6 297.2L2121 389.8Z" fill="#acc6a1" stroke="#acc6a1"></path><path d="M392.8 533.4L593 596.4L607.4 573.4Z" fill="#bbd2b1" stroke="#bbd2b1"></path><path d="M336.8 646L401.8 733.6L392.8 533.4Z" fill="#b3cca9" stroke="#b3cca9"></path><path d="M365.8 887.2L239.2 963.2L307.2 1014.8Z" fill="#bbd2b1" stroke="#bbd2b1"></path><path d="M204.2 1755.8L458.8 1638.2L311.2 1555.2Z" fill="#d6e4ce" stroke="#d6e4ce"></path><path d="M414.8 1984.4L476.8 2131.6L505.4 2080Z" fill="#b3cca9" stroke="#b3cca9"></path><path d="M231.2 1253.4L218.6 1321L266.2 1369Z" fill="#b3cca9" stroke="#b3cca9"></path><path d="M273.2 1539.6L214.6 1595.2L311.2 1555.2Z" fill="#c2d8b9" stroke="#c2d8b9"></path><path d="M218.6 1321L218.6 1488.6L266.2 1369Z" fill="#cedfc5" stroke="#cedfc5"></path><path d="M880.6 228.6L750.6 354.8L940.2 374.8Z" fill="#d6e4ce" stroke="#d6e4ce"></path><path d="M302.2 2057L476.8 2131.6L414.8 1984.4Z" fill="#d6e4ce" stroke="#d6e4ce"></path><path d="M683 2419.2L746.6 2387.2L724 2252.6Z" fill="#a5c09a" stroke="#a5c09a"></path><path d="M2350.2 2254.6L2381.8 2142.6L2320.2 2144Z" fill="#9eba92" stroke="#9eba92"></path><path d="M2551.4 2006L2583.4 1883.4L2433.8 1899.4Z" fill="#c6dabd" stroke="#c6dabd"></path><path d="M500.4 2216.6L724 2252.6L502.8 2137Z" fill="#acc6a1" stroke="#acc6a1"></path><path d="M746.6 2387.2L936.2 2497.8L967.2 2247.2Z" fill="#a5c09a" stroke="#a5c09a"></path><path d="M1703.8 149.6L1688.8 265.2L1826.4 314.2Z" fill="#a5c09a" stroke="#a5c09a"></path><path d="M1640.2 100.6L1449.6 133.6L1559.2 280.2Z" fill="#d2e2ca" stroke="#d2e2ca"></path><path d="M1225.4 220.2L1050.8 189.6L1067.8 354.8Z" fill="#cedfc5" stroke="#cedfc5"></path><path d="M70.6 1709.8L214.6 1595.2L0 1548.2Z" fill="#caddc1" stroke="#caddc1"></path><path d="M218.6 1488.6L214.6 1595.2L273.2 1539.6Z" fill="#c2d8b9" stroke="#c2d8b9"></path><path d="M1130.4 151.6L1050.8 189.6L1225.4 220.2Z" fill="#d6e4ce" stroke="#d6e4ce"></path><path d="M964.2 261.2L880.6 228.6L940.2 374.8Z" fill="#caddc1" stroke="#caddc1"></path><path d="M1310.4 2609.4L1384 2387.8L1257.4 2368.2Z" fill="#b3cca9" stroke="#b3cca9"></path><path d="M1464.6 2478.8L1479.6 2676.4L1613.2 2467.8Z" fill="#d2e2ca" stroke="#d2e2ca"></path><path d="M1310.4 2609.4L1257.4 2368.2L1106.8 2494.8Z" fill="#acc6a1" stroke="#acc6a1"></path><path d="M1271 2732L1310.4 2609.4L1265.4 2732Z" fill="#9eba92" stroke="#9eba92"></path><path d="M996.2 2592.4L1018.8 2547.4L936.2 2497.8Z" fill="#cedfc5" stroke="#cedfc5"></path><path d="M936.2 2497.8L1018.8 2547.4L1106.8 2494.8Z" fill="#a5c09a" stroke="#a5c09a"></path><path d="M1953.4 193.6L1703.8 149.6L1826.4 314.2Z" fill="#bbd2b1" stroke="#bbd2b1"></path><path d="M1050.8 189.6L963.2 207.6L964.2 261.2Z" fill="#d2e2ca" stroke="#d2e2ca"></path><path d="M2511.8 1019.8L2537.8 776L2431.8 924.2Z" fill="#acc6a1" stroke="#acc6a1"></path><path d="M2428.8 787.6L2546.4 606L2331.2 561.4Z" fill="#a5c09a" stroke="#a5c09a"></path><path d="M2661.4 1002.2L2537.8 776L2511.8 1019.8Z" fill="#cedfc5" stroke="#cedfc5"></path><path d="M1338 80.6L1130.4 151.6L1225.4 220.2Z" fill="#a5c09a" stroke="#a5c09a"></path><path d="M1050.8 189.6L942.2 0L963.2 207.6Z" fill="#9eba92" stroke="#9eba92"></path><path d="M2228.2 322.2L2121 389.8L2206.6 462.8Z" fill="#acc6a1" stroke="#acc6a1"></path><path d="M2121 389.8L2089.6 297.2L1975.4 395.8Z" fill="#c6dabd" stroke="#c6dabd"></path><path d="M2269.2 416.8L2206.6 462.8L2331.2 561.4Z" fill="#cedfc5" stroke="#cedfc5"></path><path d="M746.6 2387.2L906.6 2511.8L936.2 2497.8Z" fill="#d6e4ce" stroke="#d6e4ce"></path><path d="M2732 1712.2L2649.4 1693.8L2732 1789.8Z" fill="#d2e2ca" stroke="#d2e2ca"></path><path d="M2555.8 1796.8L2649.4 1693.8L2503.8 1737.2Z" fill="#cedfc5" stroke="#cedfc5"></path><path d="M2732 1037.8L2661.4 1002.2L2510.4 1115.8Z" fill="#c6dabd" stroke="#c6dabd"></path><path d="M263.2 2186.6L500.4 2216.6L476.8 2131.6Z" fill="#d2e2ca" stroke="#d2e2ca"></path><path d="M476.8 2131.6L500.4 2216.6L502.8 2137Z" fill="#caddc1" stroke="#caddc1"></path><path d="M746.6 2387.2L743 2459.8L906.6 2511.8Z" fill="#c2d8b9" stroke="#c2d8b9"></path><path d="M2551.4 2006L2433.8 1899.4L2395.8 2076Z" fill="#d2e2ca" stroke="#d2e2ca"></path><path d="M139.6 906.2L239.2 963.2L188.2 743.6Z" fill="#b3cca9" stroke="#b3cca9"></path><path d="M307.2 1014.8L72.6 1129.8L325.8 1140.8Z" fill="#cedfc5" stroke="#cedfc5"></path><path d="M231.2 1253.4L106.6 1303.4L218.6 1321Z" fill="#b3cca9" stroke="#b3cca9"></path><path d="M842.6 218.2L880.6 228.6L891.6 0Z" fill="#acc6a1" stroke="#acc6a1"></path><path d="M963.2 207.6L880.6 228.6L964.2 261.2Z" fill="#acc6a1" stroke="#acc6a1"></path><path d="M2446.8 338.2L2269.2 416.8L2331.2 561.4Z" fill="#b3cca9" stroke="#b3cca9"></path><path d="M2377.2 2355.2L2350.2 2254.6L2249.6 2242.2Z" fill="#caddc1" stroke="#caddc1"></path><path d="M2249.6 2242.2L2350.2 2254.6L2320.2 2144Z" fill="#caddc1" stroke="#caddc1"></path><path d="M2381.8 2142.6L2551.4 2006L2395.8 2076Z" fill="#b3cca9" stroke="#b3cca9"></path><path d="M1910.4 2455.8L2096 2458.8L1954 2302.2Z" fill="#caddc1" stroke="#caddc1"></path><path d="M1969.4 2648.4L2096 2458.8L1910.4 2455.8Z" fill="#b3cca9" stroke="#b3cca9"></path><path d="M2732 1296.4L2510.4 1115.8L2572.4 1305.4Z" fill="#a5c09a" stroke="#a5c09a"></path><path d="M1703.8 149.6L1640.2 100.6L1688.8 265.2Z" fill="#b3cca9" stroke="#b3cca9"></path><path d="M1449.6 133.6L1338 80.6L1340 264.2Z" fill="#d6e4ce" stroke="#d6e4ce"></path><path d="M1622.2 0L1640.2 100.6L1790.8 0Z" fill="#d6e4ce" stroke="#d6e4ce"></path><path d="M1973 180.2L1953.4 193.6L2089.6 297.2Z" fill="#a5c09a" stroke="#a5c09a"></path><path d="M2089.6 297.2L1953.4 193.6L1975.4 395.8Z" fill="#cedfc5" stroke="#cedfc5"></path><path d="M2732 2074L2551.4 2006L2732 2094.6Z" fill="#d2e2ca" stroke="#d2e2ca"></path><path d="M2732 1789.8L2649.4 1693.8L2555.8 1796.8Z" fill="#c2d8b9" stroke="#c2d8b9"></path><path d="M2096 2458.8L2116.6 2459.8L2001 2267.6Z" fill="#9eba92" stroke="#9eba92"></path><path d="M2134.6 2617.4L2116.6 2459.8L2096 2458.8Z" fill="#c6dabd" stroke="#c6dabd"></path><path d="M214.6 1595.2L204.2 1755.8L311.2 1555.2Z" fill="#d6e4ce" stroke="#d6e4ce"></path><path d="M327.8 1867.8L302.2 2057L414.8 1984.4Z" fill="#c2d8b9" stroke="#c2d8b9"></path><path d="M70.6 1709.8L204.2 1755.8L214.6 1595.2Z" fill="#c6dabd" stroke="#c6dabd"></path><path d="M578.4 2377.2L683 2419.2L724 2252.6Z" fill="#bbd2b1" stroke="#bbd2b1"></path><path d="M683 2419.2L743 2459.8L746.6 2387.2Z" fill="#caddc1" stroke="#caddc1"></path><path d="M750.6 354.8L577.4 401.8L736 495.8Z" fill="#d2e2ca" stroke="#d2e2ca"></path><path d="M401.8 733.6L188.2 743.6L365.8 887.2Z" fill="#a5c09a" stroke="#a5c09a"></path><path d="M609 253.2L577.4 401.8L750.6 354.8Z" fill="#d6e4ce" stroke="#d6e4ce"></path><path d="M1500.6 0L1338 80.6L1449.6 133.6Z" fill="#bbd2b1" stroke="#bbd2b1"></path><path d="M891.6 0L880.6 228.6L963.2 207.6Z" fill="#bbd2b1" stroke="#bbd2b1"></path><path d="M1089.8 0L1050.8 189.6L1130.4 151.6Z" fill="#caddc1" stroke="#caddc1"></path><path d="M880.6 228.6L842.6 218.2L750.6 354.8Z" fill="#d2e2ca" stroke="#d2e2ca"></path><path d="M1479.6 2676.4L1464.6 2478.8L1423 2612.4Z" fill="#c6dabd" stroke="#c6dabd"></path><path d="M1479.6 2676.4L1691.2 2641.4L1613.2 2467.8Z" fill="#c6dabd" stroke="#c6dabd"></path><path d="M828.6 2597.4L996.2 2592.4L906.6 2511.8Z" fill="#9eba92" stroke="#9eba92"></path><path d="M906.6 2511.8L996.2 2592.4L936.2 2497.8Z" fill="#9eba92" stroke="#9eba92"></path><path d="M1018.8 2547.4L1127.8 2732L1106.8 2494.8Z" fill="#bbd2b1" stroke="#bbd2b1"></path><path d="M1271 2732L1479.6 2676.4L1423 2612.4Z" fill="#cedfc5" stroke="#cedfc5"></path><path d="M2649.4 1693.8L2732 1424.6L2517.4 1541.6Z" fill="#c2d8b9" stroke="#c2d8b9"></path><path d="M2732 1424.6L2732 1298L2572.4 1305.4Z" fill="#bbd2b1" stroke="#bbd2b1"></path><path d="M2732 1298L2732 1296.4L2572.4 1305.4Z" fill="#acc6a1" stroke="#acc6a1"></path><path d="M1691.2 2641.4L1765.8 2627.4L1613.2 2467.8Z" fill="#a5c09a" stroke="#a5c09a"></path><path d="M1984 143.6L1973 180.2L2159.6 156.6Z" fill="#a5c09a" stroke="#a5c09a"></path><path d="M1953.4 193.6L1790.8 0L1703.8 149.6Z" fill="#caddc1" stroke="#caddc1"></path><path d="M1531.6 2732L1479.6 2676.4L1271 2732Z" fill="#c6dabd" stroke="#c6dabd"></path><path d="M392.8 533.4L516.4 740L593 596.4Z" fill="#b3cca9" stroke="#b3cca9"></path><path d="M2446.8 338.2L2228.2 322.2L2269.2 416.8Z" fill="#c2d8b9" stroke="#c2d8b9"></path><path d="M2269.2 416.8L2228.2 322.2L2206.6 462.8Z" fill="#c2d8b9" stroke="#c2d8b9"></path><path d="M497.8 2374.2L578.4 2377.2L500.4 2216.6Z" fill="#c6dabd" stroke="#c6dabd"></path><path d="M500.4 2216.6L578.4 2377.2L724 2252.6Z" fill="#c2d8b9" stroke="#c2d8b9"></path><path d="M723 2622.4L828.6 2597.4L743 2459.8Z" fill="#c6dabd" stroke="#c6dabd"></path><path d="M743 2459.8L828.6 2597.4L906.6 2511.8Z" fill="#c6dabd" stroke="#c6dabd"></path><path d="M195.2 1887.4L302.2 2057L327.8 1867.8Z" fill="#b3cca9" stroke="#b3cca9"></path><path d="M72.6 1129.8L106.6 1303.4L231.2 1253.4Z" fill="#cedfc5" stroke="#cedfc5"></path><path d="M218.6 1321L106.6 1303.4L218.6 1488.6Z" fill="#9eba92" stroke="#9eba92"></path><path d="M72.6 1129.8L307.2 1014.8L239.2 963.2Z" fill="#d6e4ce" stroke="#d6e4ce"></path><path d="M577.4 401.8L392.8 533.4L607.4 573.4Z" fill="#c6dabd" stroke="#c6dabd"></path><path d="M2732 1296.4L2732 1037.8L2510.4 1115.8Z" fill="#cedfc5" stroke="#cedfc5"></path><path d="M2661.4 1002.2L2679.4 809.6L2537.8 776Z" fill="#a5c09a" stroke="#a5c09a"></path><path d="M2537.8 776L2546.4 606L2428.8 787.6Z" fill="#cedfc5" stroke="#cedfc5"></path><path d="M70.6 1709.8L195.2 1887.4L204.2 1755.8Z" fill="#c6dabd" stroke="#c6dabd"></path><path d="M204.2 1755.8L195.2 1887.4L327.8 1867.8Z" fill="#c6dabd" stroke="#c6dabd"></path><path d="M2159.6 156.6L1973 180.2L2089.6 297.2Z" fill="#d6e4ce" stroke="#d6e4ce"></path><path d="M1973 180.2L1984 143.6L1953.4 193.6Z" fill="#b3cca9" stroke="#b3cca9"></path><path d="M2732 1789.8L2555.8 1796.8L2583.4 1883.4Z" fill="#b3cca9" stroke="#b3cca9"></path><path d="M2649.4 1693.8L2732 1712.2L2732 1424.6Z" fill="#d6e4ce" stroke="#d6e4ce"></path><path d="M2679.4 809.6L2546.4 606L2537.8 776Z" fill="#d2e2ca" stroke="#d2e2ca"></path><path d="M2234.2 2577.4L2270.2 2433.8L2116.6 2459.8Z" fill="#bbd2b1" stroke="#bbd2b1"></path><path d="M2116.6 2459.8L2270.2 2433.8L2249.6 2242.2Z" fill="#9eba92" stroke="#9eba92"></path><path d="M2350.2 2254.6L2534.4 2373.2L2381.8 2142.6Z" fill="#c2d8b9" stroke="#c2d8b9"></path><path d="M2732 1037.8L2732 965.2L2661.4 1002.2Z" fill="#cedfc5" stroke="#cedfc5"></path><path d="M2270.2 2433.8L2377.2 2355.2L2249.6 2242.2Z" fill="#d2e2ca" stroke="#d2e2ca"></path><path d="M2732 1960.4L2732 1789.8L2583.4 1883.4Z" fill="#acc6a1" stroke="#acc6a1"></path><path d="M2732 1960.4L2583.4 1883.4L2551.4 2006Z" fill="#b3cca9" stroke="#b3cca9"></path><path d="M2732 867.6L2679.4 809.6L2661.4 1002.2Z" fill="#d6e4ce" stroke="#d6e4ce"></path><path d="M1271 2732L1423 2612.4L1310.4 2609.4Z" fill="#9eba92" stroke="#9eba92"></path><path d="M1479.6 2676.4L1604.2 2732L1691.2 2641.4Z" fill="#d2e2ca" stroke="#d2e2ca"></path><path d="M1691.2 2641.4L1768.8 2732L1765.8 2627.4Z" fill="#c2d8b9" stroke="#c2d8b9"></path><path d="M1765.8 2627.4L1969.4 2648.4L1910.4 2455.8Z" fill="#b3cca9" stroke="#b3cca9"></path><path d="M457.8 336.8L392.8 533.4L577.4 401.8Z" fill="#b3cca9" stroke="#b3cca9"></path><path d="M361.2 365.8L362.2 517.4L392.8 533.4Z" fill="#bbd2b1" stroke="#bbd2b1"></path><path d="M392.8 533.4L362.2 517.4L336.8 646Z" fill="#caddc1" stroke="#caddc1"></path><path d="M188.2 743.6L239.2 963.2L365.8 887.2Z" fill="#c2d8b9" stroke="#c2d8b9"></path><path d="M723 2622.4L743 2459.8L683 2419.2Z" fill="#bbd2b1" stroke="#bbd2b1"></path><path d="M1265.4 2732L1310.4 2609.4L1127.8 2732Z" fill="#c6dabd" stroke="#c6dabd"></path><path d="M1622.2 0L1500.6 0L1640.2 100.6Z" fill="#d6e4ce" stroke="#d6e4ce"></path><path d="M1640.2 100.6L1500.6 0L1449.6 133.6Z" fill="#cedfc5" stroke="#cedfc5"></path><path d="M1338 80.6L1287 0L1130.4 151.6Z" fill="#d2e2ca" stroke="#d2e2ca"></path><path d="M1310.4 2609.4L1106.8 2494.8L1127.8 2732Z" fill="#b3cca9" stroke="#b3cca9"></path><path d="M322.2 2397.2L497.8 2374.2L500.4 2216.6Z" fill="#b3cca9" stroke="#b3cca9"></path><path d="M495.4 2523.4L723 2622.4L683 2419.2Z" fill="#d2e2ca" stroke="#d2e2ca"></path><path d="M263.2 2186.6L476.8 2131.6L302.2 2057Z" fill="#c2d8b9" stroke="#c2d8b9"></path><path d="M1127.8 2732L1018.8 2547.4L996.2 2592.4Z" fill="#9eba92" stroke="#9eba92"></path><path d="M188.2 743.6L401.8 733.6L336.8 646Z" fill="#caddc1" stroke="#caddc1"></path><path d="M1531.6 2732L1604.2 2732L1479.6 2676.4Z" fill="#c2d8b9" stroke="#c2d8b9"></path><path d="M1500.6 0L1287 0L1338 80.6Z" fill="#bbd2b1" stroke="#bbd2b1"></path><path d="M2532.8 523.4L2532.4 533.4L2732 586Z" fill="#b3cca9" stroke="#b3cca9"></path><path d="M2546.4 606L2532.4 533.4L2331.2 561.4Z" fill="#c6dabd" stroke="#c6dabd"></path><path d="M2228.2 322.2L2159.6 156.6L2089.6 297.2Z" fill="#bbd2b1" stroke="#bbd2b1"></path><path d="M139.6 906.2L72.6 1129.8L239.2 963.2Z" fill="#d6e4ce" stroke="#d6e4ce"></path><path d="M0 1548.2L214.6 1595.2L218.6 1488.6Z" fill="#d6e4ce" stroke="#d6e4ce"></path><path d="M1790.8 0L1640.2 100.6L1703.8 149.6Z" fill="#bbd2b1" stroke="#bbd2b1"></path><path d="M684 157.6L750.6 354.8L842.6 218.2Z" fill="#9eba92" stroke="#9eba92"></path><path d="M684 157.6L609 253.2L750.6 354.8Z" fill="#9eba92" stroke="#9eba92"></path><path d="M1768.8 2732L1969.4 2648.4L1765.8 2627.4Z" fill="#d6e4ce" stroke="#d6e4ce"></path><path d="M2576.4 409.8L2532.8 523.4L2732 586Z" fill="#caddc1" stroke="#caddc1"></path><path d="M2532.4 533.4L2532.8 523.4L2331.2 561.4Z" fill="#bbd2b1" stroke="#bbd2b1"></path><path d="M2732 965.2L2732 867.6L2661.4 1002.2Z" fill="#acc6a1" stroke="#acc6a1"></path><path d="M2732 586L2532.4 533.4L2546.4 606Z" fill="#d2e2ca" stroke="#d2e2ca"></path><path d="M178.2 601L188.2 743.6L336.8 646Z" fill="#cedfc5" stroke="#cedfc5"></path><path d="M0 1066.8L0 1194.4L72.6 1129.8Z" fill="#cedfc5" stroke="#cedfc5"></path><path d="M925.2 2732L1127.8 2732L996.2 2592.4Z" fill="#cedfc5" stroke="#cedfc5"></path><path d="M1287 0L1133.4 0L1130.4 151.6Z" fill="#d2e2ca" stroke="#d2e2ca"></path><path d="M1604.2 2732L1768.8 2732L1691.2 2641.4Z" fill="#b3cca9" stroke="#b3cca9"></path><path d="M0 1454L218.6 1488.6L106.6 1303.4Z" fill="#d6e4ce" stroke="#d6e4ce"></path><path d="M62.6 2099.6L263.2 2186.6L302.2 2057Z" fill="#c2d8b9" stroke="#c2d8b9"></path><path d="M1133.4 0L1089.8 0L1130.4 151.6Z" fill="#cedfc5" stroke="#cedfc5"></path><path d="M2272.2 131.6L2159.6 156.6L2228.2 322.2Z" fill="#d2e2ca" stroke="#d2e2ca"></path><path d="M1984 143.6L1790.8 0L1953.4 193.6Z" fill="#cedfc5" stroke="#cedfc5"></path><path d="M1942.4 0L1790.8 0L1984 143.6Z" fill="#d2e2ca" stroke="#d2e2ca"></path><path d="M499.4 262.2L457.8 336.8L577.4 401.8Z" fill="#b3cca9" stroke="#b3cca9"></path><path d="M362.2 517.4L178.2 601L336.8 646Z" fill="#cedfc5" stroke="#cedfc5"></path><path d="M891.6 0L684 157.6L842.6 218.2Z" fill="#acc6a1" stroke="#acc6a1"></path><path d="M609 253.2L499.4 262.2L577.4 401.8Z" fill="#c6dabd" stroke="#c6dabd"></path><path d="M120.6 1950.4L302.2 2057L195.2 1887.4Z" fill="#cedfc5" stroke="#cedfc5"></path><path d="M2732 2074L2732 1960.4L2551.4 2006Z" fill="#caddc1" stroke="#caddc1"></path><path d="M2497.8 2418.2L2534.4 2373.2L2377.2 2355.2Z" fill="#caddc1" stroke="#caddc1"></path><path d="M2066 2657.4L2134.6 2617.4L2096 2458.8Z" fill="#c6dabd" stroke="#c6dabd"></path><path d="M2066 2657.4L2096 2458.8L1969.4 2648.4Z" fill="#9eba92" stroke="#9eba92"></path><path d="M0 1873.4L120.6 1950.4L195.2 1887.4Z" fill="#d6e4ce" stroke="#d6e4ce"></path><path d="M0 1194.4L0 1454L106.6 1303.4Z" fill="#c6dabd" stroke="#c6dabd"></path><path d="M70.6 1709.8L0 1873.4L195.2 1887.4Z" fill="#d2e2ca" stroke="#d2e2ca"></path><path d="M1994.4 2732L2066 2657.4L1969.4 2648.4Z" fill="#cedfc5" stroke="#cedfc5"></path><path d="M0 1454L0 1464.6L218.6 1488.6Z" fill="#caddc1" stroke="#caddc1"></path><path d="M495.4 2523.4L683 2419.2L578.4 2377.2Z" fill="#b3cca9" stroke="#b3cca9"></path><path d="M902.6 2732L925.2 2732L996.2 2592.4Z" fill="#bbd2b1" stroke="#bbd2b1"></path><path d="M462.4 2437.8L578.4 2377.2L497.8 2374.2Z" fill="#d2e2ca" stroke="#d2e2ca"></path><path d="M0 1066.8L72.6 1129.8L139.6 906.2Z" fill="#acc6a1" stroke="#acc6a1"></path><path d="M72.6 1129.8L0 1194.4L106.6 1303.4Z" fill="#d2e2ca" stroke="#d2e2ca"></path><path d="M407.8 2459.8L462.4 2437.8L322.2 2397.2Z" fill="#a5c09a" stroke="#a5c09a"></path><path d="M0 1464.6L0 1548.2L218.6 1488.6Z" fill="#b3cca9" stroke="#b3cca9"></path><path d="M2532.8 523.4L2446.8 338.2L2331.2 561.4Z" fill="#c2d8b9" stroke="#c2d8b9"></path><path d="M2480.8 312.8L2446.8 338.2L2576.4 409.8Z" fill="#d6e4ce" stroke="#d6e4ce"></path><path d="M589.4 163.6L499.4 262.2L609 253.2Z" fill="#d2e2ca" stroke="#d2e2ca"></path><path d="M457.8 336.8L361.2 365.8L392.8 533.4Z" fill="#bbd2b1" stroke="#bbd2b1"></path><path d="M2221.6 2732L2234.2 2577.4L2134.6 2617.4Z" fill="#acc6a1" stroke="#acc6a1"></path><path d="M2134.6 2617.4L2234.2 2577.4L2116.6 2459.8Z" fill="#bbd2b1" stroke="#bbd2b1"></path><path d="M2732 2094.6L2551.4 2006L2677.4 2255.6Z" fill="#bbd2b1" stroke="#bbd2b1"></path><path d="M1089.8 0L942.2 0L1050.8 189.6Z" fill="#bbd2b1" stroke="#bbd2b1"></path><path d="M684 157.6L589.4 163.6L609 253.2Z" fill="#d6e4ce" stroke="#d6e4ce"></path><path d="M902.6 2732L996.2 2592.4L828.6 2597.4Z" fill="#caddc1" stroke="#caddc1"></path><path d="M1997 0L1942.4 0L1984 143.6Z" fill="#cedfc5" stroke="#cedfc5"></path><path d="M1997 0L1984 143.6L2130.6 0Z" fill="#d2e2ca" stroke="#d2e2ca"></path><path d="M723 2622.4L902.6 2732L828.6 2597.4Z" fill="#c6dabd" stroke="#c6dabd"></path><path d="M0 937.2L0 1066.8L139.6 906.2Z" fill="#c6dabd" stroke="#c6dabd"></path><path d="M359.8 364.2L361.2 365.8L457.8 336.8Z" fill="#acc6a1" stroke="#acc6a1"></path><path d="M188.2 743.6L68.6 818.6L139.6 906.2Z" fill="#caddc1" stroke="#caddc1"></path><path d="M332.2 211.2L359.8 364.2L457.8 336.8Z" fill="#a5c09a" stroke="#a5c09a"></path><path d="M361.2 365.8L359.8 364.2L362.2 517.4Z" fill="#acc6a1" stroke="#acc6a1"></path><path d="M359.8 364.2L178.2 601L362.2 517.4Z" fill="#cedfc5" stroke="#cedfc5"></path><path d="M36.6 758L68.6 818.6L188.2 743.6Z" fill="#d6e4ce" stroke="#d6e4ce"></path><path d="M605 0L589.4 163.6L684 157.6Z" fill="#c2d8b9" stroke="#c2d8b9"></path><path d="M499.4 262.2L332.2 211.2L457.8 336.8Z" fill="#c6dabd" stroke="#c6dabd"></path><path d="M942.2 0L891.6 0L963.2 207.6Z" fill="#c6dabd" stroke="#c6dabd"></path><path d="M1768.8 2732L1994.4 2732L1969.4 2648.4Z" fill="#c6dabd" stroke="#c6dabd"></path><path d="M2066 2657.4L2071 2732L2134.6 2617.4Z" fill="#a5c09a" stroke="#a5c09a"></path><path d="M2551.4 2006L2381.8 2142.6L2677.4 2255.6Z" fill="#caddc1" stroke="#caddc1"></path><path d="M2130.6 0L1984 143.6L2159.6 156.6Z" fill="#b3cca9" stroke="#b3cca9"></path><path d="M0 1548.2L0 1746.8L70.6 1709.8Z" fill="#caddc1" stroke="#caddc1"></path><path d="M407.8 2459.8L495.4 2523.4L462.4 2437.8Z" fill="#d6e4ce" stroke="#d6e4ce"></path><path d="M462.4 2437.8L495.4 2523.4L578.4 2377.2Z" fill="#9eba92" stroke="#9eba92"></path><path d="M723 2622.4L596 2732L902.6 2732Z" fill="#c2d8b9" stroke="#c2d8b9"></path><path d="M2576.4 409.8L2446.8 338.2L2532.8 523.4Z" fill="#c2d8b9" stroke="#c2d8b9"></path><path d="M2420.8 145.6L2272.2 131.6L2228.2 322.2Z" fill="#c6dabd" stroke="#c6dabd"></path><path d="M2534.4 2373.2L2350.2 2254.6L2377.2 2355.2Z" fill="#cedfc5" stroke="#cedfc5"></path><path d="M2497.8 2418.2L2377.2 2355.2L2400.8 2564.4Z" fill="#caddc1" stroke="#caddc1"></path><path d="M2732 595.4L2546.4 606L2679.4 809.6Z" fill="#bbd2b1" stroke="#bbd2b1"></path><path d="M2400.8 2564.4L2270.2 2433.8L2234.2 2577.4Z" fill="#d2e2ca" stroke="#d2e2ca"></path><path d="M2400.8 2564.4L2377.2 2355.2L2270.2 2433.8Z" fill="#c2d8b9" stroke="#c2d8b9"></path><path d="M2420.8 145.6L2228.2 322.2L2446.8 338.2Z" fill="#9eba92" stroke="#9eba92"></path><path d="M0 847.6L0 937.2L68.6 818.6Z" fill="#cedfc5" stroke="#cedfc5"></path><path d="M68.6 818.6L0 937.2L139.6 906.2Z" fill="#bbd2b1" stroke="#bbd2b1"></path><path d="M322.2 2397.2L500.4 2216.6L263.2 2186.6Z" fill="#acc6a1" stroke="#acc6a1"></path><path d="M322.2 2397.2L462.4 2437.8L497.8 2374.2Z" fill="#c6dabd" stroke="#c6dabd"></path><path d="M322.2 2397.2L197.6 2426.8L256.2 2473.8Z" fill="#c6dabd" stroke="#c6dabd"></path><path d="M2534.4 2373.2L2554.8 2365.8L2381.8 2142.6Z" fill="#acc6a1" stroke="#acc6a1"></path><path d="M2629.4 2455.8L2554.8 2365.8L2534.4 2373.2Z" fill="#a5c09a" stroke="#a5c09a"></path><path d="M1994.4 2732L2071 2732L2066 2657.4Z" fill="#bbd2b1" stroke="#bbd2b1"></path><path d="M2732 867.6L2732 595.4L2679.4 809.6Z" fill="#d6e4ce" stroke="#d6e4ce"></path><path d="M62.6 2099.6L302.2 2057L120.6 1950.4Z" fill="#acc6a1" stroke="#acc6a1"></path><path d="M2732 595.4L2732 586L2546.4 606Z" fill="#a5c09a" stroke="#a5c09a"></path><path d="M0 1746.8L0 1873.4L70.6 1709.8Z" fill="#c6dabd" stroke="#c6dabd"></path><path d="M45.6 630.4L188.2 743.6L178.2 601Z" fill="#bbd2b1" stroke="#bbd2b1"></path><path d="M45.6 630.4L36.6 758L188.2 743.6Z" fill="#c6dabd" stroke="#c6dabd"></path><path d="M36.6 758L0 847.6L68.6 818.6Z" fill="#a5c09a" stroke="#a5c09a"></path><path d="M2732 2271.2L2677.4 2255.6L2629.4 2455.8Z" fill="#a5c09a" stroke="#a5c09a"></path><path d="M2554.8 2365.8L2677.4 2255.6L2381.8 2142.6Z" fill="#acc6a1" stroke="#acc6a1"></path><path d="M2307.2 0L2130.6 0L2272.2 131.6Z" fill="#a5c09a" stroke="#a5c09a"></path><path d="M2272.2 131.6L2130.6 0L2159.6 156.6Z" fill="#9eba92" stroke="#9eba92"></path><path d="M2338.2 2732L2400.8 2564.4L2234.2 2577.4Z" fill="#bbd2b1" stroke="#bbd2b1"></path><path d="M2497.8 2418.2L2629.4 2455.8L2534.4 2373.2Z" fill="#c6dabd" stroke="#c6dabd"></path><path d="M0 1873.4L53.6 2073L120.6 1950.4Z" fill="#b3cca9" stroke="#b3cca9"></path><path d="M53.6 2073L62.6 2099.6L120.6 1950.4Z" fill="#d2e2ca" stroke="#d2e2ca"></path><path d="M0 604.4L45.6 630.4L56.6 405.8Z" fill="#b3cca9" stroke="#b3cca9"></path><path d="M36.6 758L0 699L0 847.6Z" fill="#9eba92" stroke="#9eba92"></path><path d="M45.6 630.4L178.2 601L56.6 405.8Z" fill="#d6e4ce" stroke="#d6e4ce"></path><path d="M2563.4 98.6L2420.8 145.6L2480.8 312.8Z" fill="#9eba92" stroke="#9eba92"></path><path d="M2480.8 312.8L2420.8 145.6L2446.8 338.2Z" fill="#9eba92" stroke="#9eba92"></path><path d="M2689.4 303.2L2480.8 312.8L2576.4 409.8Z" fill="#bbd2b1" stroke="#bbd2b1"></path><path d="M2071 2732L2221.6 2732L2134.6 2617.4Z" fill="#d2e2ca" stroke="#d2e2ca"></path><path d="M2629.4 2455.8L2677.4 2255.6L2554.8 2365.8Z" fill="#d6e4ce" stroke="#d6e4ce"></path><path d="M2677.4 2255.6L2732 2271.2L2732 2094.6Z" fill="#d2e2ca" stroke="#d2e2ca"></path><path d="M2629.4 2455.8L2497.8 2418.2L2400.8 2564.4Z" fill="#b3cca9" stroke="#b3cca9"></path><path d="M45.6 630.4L0 699L36.6 758Z" fill="#a5c09a" stroke="#a5c09a"></path><path d="M455.8 91.6L499.4 262.2L589.4 163.6Z" fill="#a5c09a" stroke="#a5c09a"></path><path d="M455.8 91.6L332.2 211.2L499.4 262.2Z" fill="#d6e4ce" stroke="#d6e4ce"></path><path d="M256.2 2473.8L407.8 2459.8L322.2 2397.2Z" fill="#cedfc5" stroke="#cedfc5"></path><path d="M483.8 2732L495.4 2523.4L339.8 2679.4Z" fill="#acc6a1" stroke="#acc6a1"></path><path d="M541.4 2732L596 2732L495.4 2523.4Z" fill="#b3cca9" stroke="#b3cca9"></path><path d="M495.4 2523.4L596 2732L723 2622.4Z" fill="#c2d8b9" stroke="#c2d8b9"></path><path d="M891.6 0L605 0L684 157.6Z" fill="#acc6a1" stroke="#acc6a1"></path><path d="M518.4 0L455.8 91.6L589.4 163.6Z" fill="#c2d8b9" stroke="#c2d8b9"></path><path d="M159.6 2378.2L322.2 2397.2L263.2 2186.6Z" fill="#c6dabd" stroke="#c6dabd"></path><path d="M2688.4 2597.4L2629.4 2455.8L2400.8 2564.4Z" fill="#b3cca9" stroke="#b3cca9"></path><path d="M2732 586L2732 404.8L2576.4 409.8Z" fill="#caddc1" stroke="#caddc1"></path><path d="M53.6 2073L0 2127L62.6 2099.6Z" fill="#d6e4ce" stroke="#d6e4ce"></path><path d="M62.6 2099.6L159.6 2378.2L263.2 2186.6Z" fill="#c6dabd" stroke="#c6dabd"></path><path d="M0 1873.4L0 2127L53.6 2073Z" fill="#9eba92" stroke="#9eba92"></path><path d="M0 2127L0 2128.6L62.6 2099.6Z" fill="#c2d8b9" stroke="#c2d8b9"></path><path d="M56.6 405.8L178.2 601L359.8 364.2Z" fill="#a5c09a" stroke="#a5c09a"></path><path d="M45.6 630.4L0 604.4L0 699Z" fill="#b3cca9" stroke="#b3cca9"></path><path d="M2439.8 0L2307.2 0L2420.8 145.6Z" fill="#9eba92" stroke="#9eba92"></path><path d="M2420.8 145.6L2307.2 0L2272.2 131.6Z" fill="#a5c09a" stroke="#a5c09a"></path><path d="M0 2128.6L159.6 2378.2L62.6 2099.6Z" fill="#9eba92" stroke="#9eba92"></path><path d="M159.6 2378.2L197.6 2426.8L322.2 2397.2Z" fill="#a5c09a" stroke="#a5c09a"></path><path d="M483.8 2732L541.4 2732L495.4 2523.4Z" fill="#b3cca9" stroke="#b3cca9"></path><path d="M495.4 2523.4L407.8 2459.8L339.8 2679.4Z" fill="#d6e4ce" stroke="#d6e4ce"></path><path d="M2221.6 2732L2338.2 2732L2234.2 2577.4Z" fill="#c2d8b9" stroke="#c2d8b9"></path><path d="M605 0L518.4 0L589.4 163.6Z" fill="#d6e4ce" stroke="#d6e4ce"></path><path d="M257.2 52.6L88.6 243.2L332.2 211.2Z" fill="#bbd2b1" stroke="#bbd2b1"></path><path d="M2732 404.8L2689.4 303.2L2576.4 409.8Z" fill="#acc6a1" stroke="#acc6a1"></path><path d="M2732 404.8L2732 351.2L2689.4 303.2Z" fill="#9eba92" stroke="#9eba92"></path><path d="M518.4 0L502.8 0L455.8 91.6Z" fill="#b3cca9" stroke="#b3cca9"></path><path d="M88.6 243.2L56.6 405.8L359.8 364.2Z" fill="#9eba92" stroke="#9eba92"></path><path d="M339.8 2679.4L407.8 2459.8L256.2 2473.8Z" fill="#a5c09a" stroke="#a5c09a"></path><path d="M0 411.8L56.6 405.8L0 314.2Z" fill="#c6dabd" stroke="#c6dabd"></path><path d="M2563.4 98.6L2439.8 0L2420.8 145.6Z" fill="#9eba92" stroke="#9eba92"></path><path d="M2563.4 98.6L2480.8 312.8L2689.4 303.2Z" fill="#caddc1" stroke="#caddc1"></path><path d="M2732 220.6L2563.4 98.6L2689.4 303.2Z" fill="#9eba92" stroke="#9eba92"></path><path d="M285.2 2680.4L256.2 2473.8L150.6 2667.4Z" fill="#9eba92" stroke="#9eba92"></path><path d="M285.2 2680.4L339.8 2679.4L256.2 2473.8Z" fill="#d2e2ca" stroke="#d2e2ca"></path><path d="M256.2 2473.8L197.6 2426.8L150.6 2667.4Z" fill="#cedfc5" stroke="#cedfc5"></path><path d="M2338.2 2732L2471.8 2732L2400.8 2564.4Z" fill="#bbd2b1" stroke="#bbd2b1"></path><path d="M88.6 243.2L359.8 364.2L332.2 211.2Z" fill="#d6e4ce" stroke="#d6e4ce"></path><path d="M56.6 405.8L0 411.8L0 604.4Z" fill="#b3cca9" stroke="#b3cca9"></path><path d="M285.2 2680.4L372.2 2732L339.8 2679.4Z" fill="#acc6a1" stroke="#acc6a1"></path><path d="M339.8 2679.4L372.2 2732L483.8 2732Z" fill="#bbd2b1" stroke="#bbd2b1"></path><path d="M2732 351.2L2732 220.6L2689.4 303.2Z" fill="#caddc1" stroke="#caddc1"></path><path d="M2563.4 98.6L2615.4 0L2439.8 0Z" fill="#a5c09a" stroke="#a5c09a"></path><path d="M0 2457.8L197.6 2426.8L159.6 2378.2Z" fill="#d2e2ca" stroke="#d2e2ca"></path><path d="M2688.4 2597.4L2732 2535.8L2629.4 2455.8Z" fill="#c2d8b9" stroke="#c2d8b9"></path><path d="M2629.4 2455.8L2732 2535.8L2732 2271.2Z" fill="#a5c09a" stroke="#a5c09a"></path><path d="M336.2 0L332.2 211.2L455.8 91.6Z" fill="#caddc1" stroke="#caddc1"></path><path d="M502.8 0L336.2 0L455.8 91.6Z" fill="#d6e4ce" stroke="#d6e4ce"></path><path d="M2471.8 2732L2688.4 2597.4L2400.8 2564.4Z" fill="#bbd2b1" stroke="#bbd2b1"></path><path d="M0 2128.6L0 2388.2L159.6 2378.2Z" fill="#caddc1" stroke="#caddc1"></path><path d="M336.2 0L257.2 52.6L332.2 211.2Z" fill="#a5c09a" stroke="#a5c09a"></path><path d="M0 148.6L0 314.2L88.6 243.2Z" fill="#9eba92" stroke="#9eba92"></path><path d="M88.6 243.2L0 314.2L56.6 405.8Z" fill="#acc6a1" stroke="#acc6a1"></path><path d="M2732 2732L2732 2606.4L2688.4 2597.4Z" fill="#c6dabd" stroke="#c6dabd"></path><path d="M2688.4 2597.4L2732 2606.4L2732 2535.8Z" fill="#bbd2b1" stroke="#bbd2b1"></path><path d="M0 2388.2L0 2457.8L159.6 2378.2Z" fill="#caddc1" stroke="#caddc1"></path><path d="M336.2 0L212.6 38.6L257.2 52.6Z" fill="#c2d8b9" stroke="#c2d8b9"></path><path d="M257.2 52.6L212.6 38.6L88.6 243.2Z" fill="#d6e4ce" stroke="#d6e4ce"></path><path d="M2471.8 2732L2617.4 2732L2688.4 2597.4Z" fill="#c6dabd" stroke="#c6dabd"></path><path d="M2732 0L2615.4 0L2563.4 98.6Z" fill="#b3cca9" stroke="#b3cca9"></path><path d="M0 2457.8L150.6 2667.4L197.6 2426.8Z" fill="#d2e2ca" stroke="#d2e2ca"></path><path d="M285.2 2680.4L218.6 2732L372.2 2732Z" fill="#acc6a1" stroke="#acc6a1"></path><path d="M150.6 2667.4L218.6 2732L285.2 2680.4Z" fill="#acc6a1" stroke="#acc6a1"></path><path d="M117.6 0L0 148.6L88.6 243.2Z" fill="#acc6a1" stroke="#acc6a1"></path><path d="M2617.4 2732L2732 2732L2688.4 2597.4Z" fill="#b3cca9" stroke="#b3cca9"></path><path d="M2732 220.6L2732 0L2563.4 98.6Z" fill="#acc6a1" stroke="#acc6a1"></path><path d="M336.2 0L117.6 0L212.6 38.6Z" fill="#acc6a1" stroke="#acc6a1"></path><path d="M212.6 38.6L117.6 0L88.6 243.2Z" fill="#caddc1" stroke="#caddc1"></path><path d="M0 2457.8L0 2656.4L150.6 2667.4Z" fill="#d2e2ca" stroke="#d2e2ca"></path><path d="M150.6 2667.4L0 2732L218.6 2732Z" fill="#d6e4ce" stroke="#d6e4ce"></path><path d="M0 2656.4L0 2732L150.6 2667.4Z" fill="#b3cca9" stroke="#b3cca9"></path><path d="M117.6 0L0 0L0 148.6Z" fill="#c2d8b9" stroke="#c2d8b9"></path></g></svg>